<?xml version="1.0" encoding="utf-8" standalone="no"?>
<!DOCTYPE svg PUBLIC "-//W3C//DTD SVG 1.1//EN"
  "http://www.w3.org/Graphics/SVG/1.1/DTD/svg11.dtd">
<!-- Created with matplotlib (https://matplotlib.org/) -->
<svg height="360pt" version="1.1" viewBox="0 0 720 360" width="720pt" xmlns="http://www.w3.org/2000/svg" xmlns:xlink="http://www.w3.org/1999/xlink">
 <metadata>
  <rdf:RDF xmlns:cc="http://creativecommons.org/ns#" xmlns:dc="http://purl.org/dc/elements/1.1/" xmlns:rdf="http://www.w3.org/1999/02/22-rdf-syntax-ns#">
   <cc:Work>
    <dc:type rdf:resource="http://purl.org/dc/dcmitype/StillImage"/>
    <dc:date>2021-03-19T13:53:54.053672</dc:date>
    <dc:format>image/svg+xml</dc:format>
    <dc:creator>
     <cc:Agent>
      <dc:title>Matplotlib v3.3.4, https://matplotlib.org/</dc:title>
     </cc:Agent>
    </dc:creator>
   </cc:Work>
  </rdf:RDF>
 </metadata>
 <defs>
  <style type="text/css">*{stroke-linecap:butt;stroke-linejoin:round;}</style>
 </defs>
 <g id="figure_1">
  <g id="patch_1">
   <path d="M 0 360 
L 720 360 
L 720 0 
L 0 0 
z
" style="fill:none;"/>
  </g>
  <g id="axes_1">
   <g id="patch_2">
    <path d="M 57.3 318.2 
L 709.2 318.2 
L 709.2 10.8 
L 57.3 10.8 
z
" style="fill:#ffffff;"/>
   </g>
   <g id="patch_3">
    <path clip-path="url(#p10bac622c7)" d="M 86.931818 318.2 
L 90.545455 318.2 
L 90.545455 204.627175 
L 86.931818 204.627175 
z
" style="fill:#1f77b4;fill-opacity:0.75;stroke:#000000;stroke-linejoin:miter;stroke-width:0.369956;"/>
   </g>
   <g id="patch_4">
    <path clip-path="url(#p10bac622c7)" d="M 90.545455 318.2 
L 94.159091 318.2 
L 94.159091 318.2 
L 90.545455 318.2 
z
" style="fill:#1f77b4;fill-opacity:0.75;stroke:#000000;stroke-linejoin:miter;stroke-width:0.369956;"/>
   </g>
   <g id="patch_5">
    <path clip-path="url(#p10bac622c7)" d="M 94.159091 318.2 
L 97.772727 318.2 
L 97.772727 318.2 
L 94.159091 318.2 
z
" style="fill:#1f77b4;fill-opacity:0.75;stroke:#000000;stroke-linejoin:miter;stroke-width:0.369956;"/>
   </g>
   <g id="patch_6">
    <path clip-path="url(#p10bac622c7)" d="M 97.772727 318.2 
L 101.386364 318.2 
L 101.386364 318.2 
L 97.772727 318.2 
z
" style="fill:#1f77b4;fill-opacity:0.75;stroke:#000000;stroke-linejoin:miter;stroke-width:0.369956;"/>
   </g>
   <g id="patch_7">
    <path clip-path="url(#p10bac622c7)" d="M 101.386364 318.2 
L 105 318.2 
L 105 318.2 
L 101.386364 318.2 
z
" style="fill:#1f77b4;fill-opacity:0.75;stroke:#000000;stroke-linejoin:miter;stroke-width:0.369956;"/>
   </g>
   <g id="patch_8">
    <path clip-path="url(#p10bac622c7)" d="M 105 318.2 
L 108.613636 318.2 
L 108.613636 318.2 
L 105 318.2 
z
" style="fill:#1f77b4;fill-opacity:0.75;stroke:#000000;stroke-linejoin:miter;stroke-width:0.369956;"/>
   </g>
   <g id="patch_9">
    <path clip-path="url(#p10bac622c7)" d="M 108.613636 318.2 
L 112.227273 318.2 
L 112.227273 318.2 
L 108.613636 318.2 
z
" style="fill:#1f77b4;fill-opacity:0.75;stroke:#000000;stroke-linejoin:miter;stroke-width:0.369956;"/>
   </g>
   <g id="patch_10">
    <path clip-path="url(#p10bac622c7)" d="M 112.227273 318.2 
L 115.840909 318.2 
L 115.840909 318.2 
L 112.227273 318.2 
z
" style="fill:#1f77b4;fill-opacity:0.75;stroke:#000000;stroke-linejoin:miter;stroke-width:0.369956;"/>
   </g>
   <g id="patch_11">
    <path clip-path="url(#p10bac622c7)" d="M 115.840909 318.2 
L 119.454545 318.2 
L 119.454545 318.2 
L 115.840909 318.2 
z
" style="fill:#1f77b4;fill-opacity:0.75;stroke:#000000;stroke-linejoin:miter;stroke-width:0.369956;"/>
   </g>
   <g id="patch_12">
    <path clip-path="url(#p10bac622c7)" d="M 119.454545 318.2 
L 123.068182 318.2 
L 123.068182 318.2 
L 119.454545 318.2 
z
" style="fill:#1f77b4;fill-opacity:0.75;stroke:#000000;stroke-linejoin:miter;stroke-width:0.369956;"/>
   </g>
   <g id="patch_13">
    <path clip-path="url(#p10bac622c7)" d="M 123.068182 318.2 
L 126.681818 318.2 
L 126.681818 318.2 
L 123.068182 318.2 
z
" style="fill:#1f77b4;fill-opacity:0.75;stroke:#000000;stroke-linejoin:miter;stroke-width:0.369956;"/>
   </g>
   <g id="patch_14">
    <path clip-path="url(#p10bac622c7)" d="M 126.681818 318.2 
L 130.295455 318.2 
L 130.295455 311.719382 
L 126.681818 311.719382 
z
" style="fill:#1f77b4;fill-opacity:0.75;stroke:#000000;stroke-linejoin:miter;stroke-width:0.369956;"/>
   </g>
   <g id="patch_15">
    <path clip-path="url(#p10bac622c7)" d="M 130.295455 318.2 
L 133.909091 318.2 
L 133.909091 318.2 
L 130.295455 318.2 
z
" style="fill:#1f77b4;fill-opacity:0.75;stroke:#000000;stroke-linejoin:miter;stroke-width:0.369956;"/>
   </g>
   <g id="patch_16">
    <path clip-path="url(#p10bac622c7)" d="M 133.909091 318.2 
L 137.522727 318.2 
L 137.522727 318.2 
L 133.909091 318.2 
z
" style="fill:#1f77b4;fill-opacity:0.75;stroke:#000000;stroke-linejoin:miter;stroke-width:0.369956;"/>
   </g>
   <g id="patch_17">
    <path clip-path="url(#p10bac622c7)" d="M 137.522727 318.2 
L 141.136364 318.2 
L 141.136364 318.2 
L 137.522727 318.2 
z
" style="fill:#1f77b4;fill-opacity:0.75;stroke:#000000;stroke-linejoin:miter;stroke-width:0.369956;"/>
   </g>
   <g id="patch_18">
    <path clip-path="url(#p10bac622c7)" d="M 141.136364 318.2 
L 144.75 318.2 
L 144.75 318.2 
L 141.136364 318.2 
z
" style="fill:#1f77b4;fill-opacity:0.75;stroke:#000000;stroke-linejoin:miter;stroke-width:0.369956;"/>
   </g>
   <g id="patch_19">
    <path clip-path="url(#p10bac622c7)" d="M 144.75 318.2 
L 148.363636 318.2 
L 148.363636 318.2 
L 144.75 318.2 
z
" style="fill:#1f77b4;fill-opacity:0.75;stroke:#000000;stroke-linejoin:miter;stroke-width:0.369956;"/>
   </g>
   <g id="patch_20">
    <path clip-path="url(#p10bac622c7)" d="M 148.363636 318.2 
L 151.977273 318.2 
L 151.977273 318.2 
L 148.363636 318.2 
z
" style="fill:#1f77b4;fill-opacity:0.75;stroke:#000000;stroke-linejoin:miter;stroke-width:0.369956;"/>
   </g>
   <g id="patch_21">
    <path clip-path="url(#p10bac622c7)" d="M 151.977273 318.2 
L 155.590909 318.2 
L 155.590909 318.2 
L 151.977273 318.2 
z
" style="fill:#1f77b4;fill-opacity:0.75;stroke:#000000;stroke-linejoin:miter;stroke-width:0.369956;"/>
   </g>
   <g id="patch_22">
    <path clip-path="url(#p10bac622c7)" d="M 155.590909 318.2 
L 159.204545 318.2 
L 159.204545 318.2 
L 155.590909 318.2 
z
" style="fill:#1f77b4;fill-opacity:0.75;stroke:#000000;stroke-linejoin:miter;stroke-width:0.369956;"/>
   </g>
   <g id="patch_23">
    <path clip-path="url(#p10bac622c7)" d="M 159.204545 318.2 
L 162.818182 318.2 
L 162.818182 318.2 
L 159.204545 318.2 
z
" style="fill:#1f77b4;fill-opacity:0.75;stroke:#000000;stroke-linejoin:miter;stroke-width:0.369956;"/>
   </g>
   <g id="patch_24">
    <path clip-path="url(#p10bac622c7)" d="M 162.818182 318.2 
L 166.431818 318.2 
L 166.431818 318.2 
L 162.818182 318.2 
z
" style="fill:#1f77b4;fill-opacity:0.75;stroke:#000000;stroke-linejoin:miter;stroke-width:0.369956;"/>
   </g>
   <g id="patch_25">
    <path clip-path="url(#p10bac622c7)" d="M 166.431818 318.2 
L 170.045455 318.2 
L 170.045455 318.2 
L 166.431818 318.2 
z
" style="fill:#1f77b4;fill-opacity:0.75;stroke:#000000;stroke-linejoin:miter;stroke-width:0.369956;"/>
   </g>
   <g id="patch_26">
    <path clip-path="url(#p10bac622c7)" d="M 170.045455 318.2 
L 173.659091 318.2 
L 173.659091 318.2 
L 170.045455 318.2 
z
" style="fill:#1f77b4;fill-opacity:0.75;stroke:#000000;stroke-linejoin:miter;stroke-width:0.369956;"/>
   </g>
   <g id="patch_27">
    <path clip-path="url(#p10bac622c7)" d="M 173.659091 318.2 
L 177.272727 318.2 
L 177.272727 318.2 
L 173.659091 318.2 
z
" style="fill:#1f77b4;fill-opacity:0.75;stroke:#000000;stroke-linejoin:miter;stroke-width:0.369956;"/>
   </g>
   <g id="patch_28">
    <path clip-path="url(#p10bac622c7)" d="M 177.272727 318.2 
L 180.886364 318.2 
L 180.886364 318.2 
L 177.272727 318.2 
z
" style="fill:#1f77b4;fill-opacity:0.75;stroke:#000000;stroke-linejoin:miter;stroke-width:0.369956;"/>
   </g>
   <g id="patch_29">
    <path clip-path="url(#p10bac622c7)" d="M 180.886364 318.2 
L 184.5 318.2 
L 184.5 318.2 
L 180.886364 318.2 
z
" style="fill:#1f77b4;fill-opacity:0.75;stroke:#000000;stroke-linejoin:miter;stroke-width:0.369956;"/>
   </g>
   <g id="patch_30">
    <path clip-path="url(#p10bac622c7)" d="M 184.5 318.2 
L 188.113636 318.2 
L 188.113636 318.2 
L 184.5 318.2 
z
" style="fill:#1f77b4;fill-opacity:0.75;stroke:#000000;stroke-linejoin:miter;stroke-width:0.369956;"/>
   </g>
   <g id="patch_31">
    <path clip-path="url(#p10bac622c7)" d="M 188.113636 318.2 
L 191.727273 318.2 
L 191.727273 318.2 
L 188.113636 318.2 
z
" style="fill:#1f77b4;fill-opacity:0.75;stroke:#000000;stroke-linejoin:miter;stroke-width:0.369956;"/>
   </g>
   <g id="patch_32">
    <path clip-path="url(#p10bac622c7)" d="M 191.727273 318.2 
L 195.340909 318.2 
L 195.340909 318.037985 
L 191.727273 318.037985 
z
" style="fill:#1f77b4;fill-opacity:0.75;stroke:#000000;stroke-linejoin:miter;stroke-width:0.369956;"/>
   </g>
   <g id="patch_33">
    <path clip-path="url(#p10bac622c7)" d="M 195.340909 318.2 
L 198.954545 318.2 
L 198.954545 318.2 
L 195.340909 318.2 
z
" style="fill:#1f77b4;fill-opacity:0.75;stroke:#000000;stroke-linejoin:miter;stroke-width:0.369956;"/>
   </g>
   <g id="patch_34">
    <path clip-path="url(#p10bac622c7)" d="M 198.954545 318.2 
L 202.568182 318.2 
L 202.568182 318.2 
L 198.954545 318.2 
z
" style="fill:#1f77b4;fill-opacity:0.75;stroke:#000000;stroke-linejoin:miter;stroke-width:0.369956;"/>
   </g>
   <g id="patch_35">
    <path clip-path="url(#p10bac622c7)" d="M 202.568182 318.2 
L 206.181818 318.2 
L 206.181818 318.2 
L 202.568182 318.2 
z
" style="fill:#1f77b4;fill-opacity:0.75;stroke:#000000;stroke-linejoin:miter;stroke-width:0.369956;"/>
   </g>
   <g id="patch_36">
    <path clip-path="url(#p10bac622c7)" d="M 206.181818 318.2 
L 209.795455 318.2 
L 209.795455 318.037985 
L 206.181818 318.037985 
z
" style="fill:#1f77b4;fill-opacity:0.75;stroke:#000000;stroke-linejoin:miter;stroke-width:0.369956;"/>
   </g>
   <g id="patch_37">
    <path clip-path="url(#p10bac622c7)" d="M 209.795455 318.2 
L 213.409091 318.2 
L 213.409091 318.2 
L 209.795455 318.2 
z
" style="fill:#1f77b4;fill-opacity:0.75;stroke:#000000;stroke-linejoin:miter;stroke-width:0.369956;"/>
   </g>
   <g id="patch_38">
    <path clip-path="url(#p10bac622c7)" d="M 213.409091 318.2 
L 217.022727 318.2 
L 217.022727 318.2 
L 213.409091 318.2 
z
" style="fill:#1f77b4;fill-opacity:0.75;stroke:#000000;stroke-linejoin:miter;stroke-width:0.369956;"/>
   </g>
   <g id="patch_39">
    <path clip-path="url(#p10bac622c7)" d="M 217.022727 318.2 
L 220.636364 318.2 
L 220.636364 318.2 
L 217.022727 318.2 
z
" style="fill:#1f77b4;fill-opacity:0.75;stroke:#000000;stroke-linejoin:miter;stroke-width:0.369956;"/>
   </g>
   <g id="patch_40">
    <path clip-path="url(#p10bac622c7)" d="M 220.636364 318.2 
L 224.25 318.2 
L 224.25 317.875969 
L 220.636364 317.875969 
z
" style="fill:#1f77b4;fill-opacity:0.75;stroke:#000000;stroke-linejoin:miter;stroke-width:0.369956;"/>
   </g>
   <g id="patch_41">
    <path clip-path="url(#p10bac622c7)" d="M 224.25 318.2 
L 227.863636 318.2 
L 227.863636 318.037985 
L 224.25 318.037985 
z
" style="fill:#1f77b4;fill-opacity:0.75;stroke:#000000;stroke-linejoin:miter;stroke-width:0.369956;"/>
   </g>
   <g id="patch_42">
    <path clip-path="url(#p10bac622c7)" d="M 227.863636 318.2 
L 231.477273 318.2 
L 231.477273 318.037985 
L 227.863636 318.037985 
z
" style="fill:#1f77b4;fill-opacity:0.75;stroke:#000000;stroke-linejoin:miter;stroke-width:0.369956;"/>
   </g>
   <g id="patch_43">
    <path clip-path="url(#p10bac622c7)" d="M 231.477273 318.2 
L 235.090909 318.2 
L 235.090909 317.713954 
L 231.477273 317.713954 
z
" style="fill:#1f77b4;fill-opacity:0.75;stroke:#000000;stroke-linejoin:miter;stroke-width:0.369956;"/>
   </g>
   <g id="patch_44">
    <path clip-path="url(#p10bac622c7)" d="M 235.090909 318.2 
L 238.704545 318.2 
L 238.704545 317.227907 
L 235.090909 317.227907 
z
" style="fill:#1f77b4;fill-opacity:0.75;stroke:#000000;stroke-linejoin:miter;stroke-width:0.369956;"/>
   </g>
   <g id="patch_45">
    <path clip-path="url(#p10bac622c7)" d="M 238.704545 318.2 
L 242.318182 318.2 
L 242.318182 317.065892 
L 238.704545 317.065892 
z
" style="fill:#1f77b4;fill-opacity:0.75;stroke:#000000;stroke-linejoin:miter;stroke-width:0.369956;"/>
   </g>
   <g id="patch_46">
    <path clip-path="url(#p10bac622c7)" d="M 242.318182 318.2 
L 245.931818 318.2 
L 245.931818 317.551938 
L 242.318182 317.551938 
z
" style="fill:#1f77b4;fill-opacity:0.75;stroke:#000000;stroke-linejoin:miter;stroke-width:0.369956;"/>
   </g>
   <g id="patch_47">
    <path clip-path="url(#p10bac622c7)" d="M 245.931818 318.2 
L 249.545455 318.2 
L 249.545455 317.227907 
L 245.931818 317.227907 
z
" style="fill:#1f77b4;fill-opacity:0.75;stroke:#000000;stroke-linejoin:miter;stroke-width:0.369956;"/>
   </g>
   <g id="patch_48">
    <path clip-path="url(#p10bac622c7)" d="M 249.545455 318.2 
L 253.159091 318.2 
L 253.159091 317.065892 
L 249.545455 317.065892 
z
" style="fill:#1f77b4;fill-opacity:0.75;stroke:#000000;stroke-linejoin:miter;stroke-width:0.369956;"/>
   </g>
   <g id="patch_49">
    <path clip-path="url(#p10bac622c7)" d="M 253.159091 318.2 
L 256.772727 318.2 
L 256.772727 316.41783 
L 253.159091 316.41783 
z
" style="fill:#1f77b4;fill-opacity:0.75;stroke:#000000;stroke-linejoin:miter;stroke-width:0.369956;"/>
   </g>
   <g id="patch_50">
    <path clip-path="url(#p10bac622c7)" d="M 256.772727 318.2 
L 260.386364 318.2 
L 260.386364 316.903876 
L 256.772727 316.903876 
z
" style="fill:#1f77b4;fill-opacity:0.75;stroke:#000000;stroke-linejoin:miter;stroke-width:0.369956;"/>
   </g>
   <g id="patch_51">
    <path clip-path="url(#p10bac622c7)" d="M 260.386364 318.2 
L 264 318.2 
L 264 316.579846 
L 260.386364 316.579846 
z
" style="fill:#1f77b4;fill-opacity:0.75;stroke:#000000;stroke-linejoin:miter;stroke-width:0.369956;"/>
   </g>
   <g id="patch_52">
    <path clip-path="url(#p10bac622c7)" d="M 264 318.2 
L 267.613636 318.2 
L 267.613636 315.607753 
L 264 315.607753 
z
" style="fill:#1f77b4;fill-opacity:0.75;stroke:#000000;stroke-linejoin:miter;stroke-width:0.369956;"/>
   </g>
   <g id="patch_53">
    <path clip-path="url(#p10bac622c7)" d="M 267.613636 318.2 
L 271.227273 318.2 
L 271.227273 315.445737 
L 267.613636 315.445737 
z
" style="fill:#1f77b4;fill-opacity:0.75;stroke:#000000;stroke-linejoin:miter;stroke-width:0.369956;"/>
   </g>
   <g id="patch_54">
    <path clip-path="url(#p10bac622c7)" d="M 271.227273 318.2 
L 274.840909 318.2 
L 274.840909 314.797676 
L 271.227273 314.797676 
z
" style="fill:#1f77b4;fill-opacity:0.75;stroke:#000000;stroke-linejoin:miter;stroke-width:0.369956;"/>
   </g>
   <g id="patch_55">
    <path clip-path="url(#p10bac622c7)" d="M 274.840909 318.2 
L 278.454545 318.2 
L 278.454545 313.663568 
L 274.840909 313.663568 
z
" style="fill:#1f77b4;fill-opacity:0.75;stroke:#000000;stroke-linejoin:miter;stroke-width:0.369956;"/>
   </g>
   <g id="patch_56">
    <path clip-path="url(#p10bac622c7)" d="M 278.454545 318.2 
L 282.068182 318.2 
L 282.068182 313.501552 
L 278.454545 313.501552 
z
" style="fill:#1f77b4;fill-opacity:0.75;stroke:#000000;stroke-linejoin:miter;stroke-width:0.369956;"/>
   </g>
   <g id="patch_57">
    <path clip-path="url(#p10bac622c7)" d="M 282.068182 318.2 
L 285.681818 318.2 
L 285.681818 315.121707 
L 282.068182 315.121707 
z
" style="fill:#1f77b4;fill-opacity:0.75;stroke:#000000;stroke-linejoin:miter;stroke-width:0.369956;"/>
   </g>
   <g id="patch_58">
    <path clip-path="url(#p10bac622c7)" d="M 285.681818 318.2 
L 289.295455 318.2 
L 289.295455 313.501552 
L 285.681818 313.501552 
z
" style="fill:#1f77b4;fill-opacity:0.75;stroke:#000000;stroke-linejoin:miter;stroke-width:0.369956;"/>
   </g>
   <g id="patch_59">
    <path clip-path="url(#p10bac622c7)" d="M 289.295455 318.2 
L 292.909091 318.2 
L 292.909091 312.691475 
L 289.295455 312.691475 
z
" style="fill:#1f77b4;fill-opacity:0.75;stroke:#000000;stroke-linejoin:miter;stroke-width:0.369956;"/>
   </g>
   <g id="patch_60">
    <path clip-path="url(#p10bac622c7)" d="M 292.909091 318.2 
L 296.522727 318.2 
L 296.522727 312.85349 
L 292.909091 312.85349 
z
" style="fill:#1f77b4;fill-opacity:0.75;stroke:#000000;stroke-linejoin:miter;stroke-width:0.369956;"/>
   </g>
   <g id="patch_61">
    <path clip-path="url(#p10bac622c7)" d="M 296.522727 318.2 
L 300.136364 318.2 
L 300.136364 309.289151 
L 296.522727 309.289151 
z
" style="fill:#1f77b4;fill-opacity:0.75;stroke:#000000;stroke-linejoin:miter;stroke-width:0.369956;"/>
   </g>
   <g id="patch_62">
    <path clip-path="url(#p10bac622c7)" d="M 300.136364 318.2 
L 303.75 318.2 
L 303.75 310.74729 
L 300.136364 310.74729 
z
" style="fill:#1f77b4;fill-opacity:0.75;stroke:#000000;stroke-linejoin:miter;stroke-width:0.369956;"/>
   </g>
   <g id="patch_63">
    <path clip-path="url(#p10bac622c7)" d="M 303.75 318.2 
L 307.363636 318.2 
L 307.363636 309.127135 
L 303.75 309.127135 
z
" style="fill:#1f77b4;fill-opacity:0.75;stroke:#000000;stroke-linejoin:miter;stroke-width:0.369956;"/>
   </g>
   <g id="patch_64">
    <path clip-path="url(#p10bac622c7)" d="M 307.363636 318.2 
L 310.977273 318.2 
L 310.977273 305.562795 
L 307.363636 305.562795 
z
" style="fill:#1f77b4;fill-opacity:0.75;stroke:#000000;stroke-linejoin:miter;stroke-width:0.369956;"/>
   </g>
   <g id="patch_65">
    <path clip-path="url(#p10bac622c7)" d="M 310.977273 318.2 
L 314.590909 318.2 
L 314.590909 306.210857 
L 310.977273 306.210857 
z
" style="fill:#1f77b4;fill-opacity:0.75;stroke:#000000;stroke-linejoin:miter;stroke-width:0.369956;"/>
   </g>
   <g id="patch_66">
    <path clip-path="url(#p10bac622c7)" d="M 314.590909 318.2 
L 318.204545 318.2 
L 318.204545 307.020934 
L 314.590909 307.020934 
z
" style="fill:#1f77b4;fill-opacity:0.75;stroke:#000000;stroke-linejoin:miter;stroke-width:0.369956;"/>
   </g>
   <g id="patch_67">
    <path clip-path="url(#p10bac622c7)" d="M 318.204545 318.2 
L 321.818182 318.2 
L 321.818182 301.026363 
L 318.204545 301.026363 
z
" style="fill:#1f77b4;fill-opacity:0.75;stroke:#000000;stroke-linejoin:miter;stroke-width:0.369956;"/>
   </g>
   <g id="patch_68">
    <path clip-path="url(#p10bac622c7)" d="M 321.818182 318.2 
L 325.431818 318.2 
L 325.431818 302.808533 
L 321.818182 302.808533 
z
" style="fill:#1f77b4;fill-opacity:0.75;stroke:#000000;stroke-linejoin:miter;stroke-width:0.369956;"/>
   </g>
   <g id="patch_69">
    <path clip-path="url(#p10bac622c7)" d="M 325.431818 318.2 
L 329.045455 318.2 
L 329.045455 303.780626 
L 325.431818 303.780626 
z
" style="fill:#1f77b4;fill-opacity:0.75;stroke:#000000;stroke-linejoin:miter;stroke-width:0.369956;"/>
   </g>
   <g id="patch_70">
    <path clip-path="url(#p10bac622c7)" d="M 329.045455 318.2 
L 332.659091 318.2 
L 332.659091 304.428687 
L 329.045455 304.428687 
z
" style="fill:#1f77b4;fill-opacity:0.75;stroke:#000000;stroke-linejoin:miter;stroke-width:0.369956;"/>
   </g>
   <g id="patch_71">
    <path clip-path="url(#p10bac622c7)" d="M 332.659091 318.2 
L 336.272727 318.2 
L 336.272727 295.841869 
L 332.659091 295.841869 
z
" style="fill:#1f77b4;fill-opacity:0.75;stroke:#000000;stroke-linejoin:miter;stroke-width:0.369956;"/>
   </g>
   <g id="patch_72">
    <path clip-path="url(#p10bac622c7)" d="M 336.272727 318.2 
L 339.886364 318.2 
L 339.886364 287.579081 
L 336.272727 287.579081 
z
" style="fill:#1f77b4;fill-opacity:0.75;stroke:#000000;stroke-linejoin:miter;stroke-width:0.369956;"/>
   </g>
   <g id="patch_73">
    <path clip-path="url(#p10bac622c7)" d="M 339.886364 318.2 
L 343.5 318.2 
L 343.5 298.434116 
L 339.886364 298.434116 
z
" style="fill:#1f77b4;fill-opacity:0.75;stroke:#000000;stroke-linejoin:miter;stroke-width:0.369956;"/>
   </g>
   <g id="patch_74">
    <path clip-path="url(#p10bac622c7)" d="M 343.5 318.2 
L 347.113636 318.2 
L 347.113636 301.350394 
L 343.5 301.350394 
z
" style="fill:#1f77b4;fill-opacity:0.75;stroke:#000000;stroke-linejoin:miter;stroke-width:0.369956;"/>
   </g>
   <g id="patch_75">
    <path clip-path="url(#p10bac622c7)" d="M 347.113636 318.2 
L 350.727273 318.2 
L 350.727273 294.059699 
L 347.113636 294.059699 
z
" style="fill:#1f77b4;fill-opacity:0.75;stroke:#000000;stroke-linejoin:miter;stroke-width:0.369956;"/>
   </g>
   <g id="patch_76">
    <path clip-path="url(#p10bac622c7)" d="M 350.727273 318.2 
L 354.340909 318.2 
L 354.340909 286.282958 
L 350.727273 286.282958 
z
" style="fill:#1f77b4;fill-opacity:0.75;stroke:#000000;stroke-linejoin:miter;stroke-width:0.369956;"/>
   </g>
   <g id="patch_77">
    <path clip-path="url(#p10bac622c7)" d="M 354.340909 318.2 
L 357.954545 318.2 
L 357.954545 277.858155 
L 354.340909 277.858155 
z
" style="fill:#1f77b4;fill-opacity:0.75;stroke:#000000;stroke-linejoin:miter;stroke-width:0.369956;"/>
   </g>
   <g id="patch_78">
    <path clip-path="url(#p10bac622c7)" d="M 357.954545 318.2 
L 361.568182 318.2 
L 361.568182 288.065128 
L 357.954545 288.065128 
z
" style="fill:#1f77b4;fill-opacity:0.75;stroke:#000000;stroke-linejoin:miter;stroke-width:0.369956;"/>
   </g>
   <g id="patch_79">
    <path clip-path="url(#p10bac622c7)" d="M 361.568182 318.2 
L 365.181818 318.2 
L 365.181818 281.422495 
L 361.568182 281.422495 
z
" style="fill:#1f77b4;fill-opacity:0.75;stroke:#000000;stroke-linejoin:miter;stroke-width:0.369956;"/>
   </g>
   <g id="patch_80">
    <path clip-path="url(#p10bac622c7)" d="M 365.181818 318.2 
L 368.795455 318.2 
L 368.795455 275.751954 
L 365.181818 275.751954 
z
" style="fill:#1f77b4;fill-opacity:0.75;stroke:#000000;stroke-linejoin:miter;stroke-width:0.369956;"/>
   </g>
   <g id="patch_81">
    <path clip-path="url(#p10bac622c7)" d="M 368.795455 318.2 
L 372.409091 318.2 
L 372.409091 283.852726 
L 368.795455 283.852726 
z
" style="fill:#1f77b4;fill-opacity:0.75;stroke:#000000;stroke-linejoin:miter;stroke-width:0.369956;"/>
   </g>
   <g id="patch_82">
    <path clip-path="url(#p10bac622c7)" d="M 372.409091 318.2 
L 376.022727 318.2 
L 376.022727 274.455831 
L 372.409091 274.455831 
z
" style="fill:#1f77b4;fill-opacity:0.75;stroke:#000000;stroke-linejoin:miter;stroke-width:0.369956;"/>
   </g>
   <g id="patch_83">
    <path clip-path="url(#p10bac622c7)" d="M 376.022727 318.2 
L 379.636364 318.2 
L 379.636364 269.757383 
L 376.022727 269.757383 
z
" style="fill:#1f77b4;fill-opacity:0.75;stroke:#000000;stroke-linejoin:miter;stroke-width:0.369956;"/>
   </g>
   <g id="patch_84">
    <path clip-path="url(#p10bac622c7)" d="M 379.636364 318.2 
L 383.25 318.2 
L 383.25 276.238 
L 379.636364 276.238 
z
" style="fill:#1f77b4;fill-opacity:0.75;stroke:#000000;stroke-linejoin:miter;stroke-width:0.369956;"/>
   </g>
   <g id="patch_85">
    <path clip-path="url(#p10bac622c7)" d="M 383.25 318.2 
L 386.863636 318.2 
L 386.863636 275.751954 
L 383.25 275.751954 
z
" style="fill:#1f77b4;fill-opacity:0.75;stroke:#000000;stroke-linejoin:miter;stroke-width:0.369956;"/>
   </g>
   <g id="patch_86">
    <path clip-path="url(#p10bac622c7)" d="M 386.863636 318.2 
L 390.477273 318.2 
L 390.477273 260.360487 
L 386.863636 260.360487 
z
" style="fill:#1f77b4;fill-opacity:0.75;stroke:#000000;stroke-linejoin:miter;stroke-width:0.369956;"/>
   </g>
   <g id="patch_87">
    <path clip-path="url(#p10bac622c7)" d="M 390.477273 318.2 
L 394.090909 318.2 
L 394.090909 261.980641 
L 390.477273 261.980641 
z
" style="fill:#1f77b4;fill-opacity:0.75;stroke:#000000;stroke-linejoin:miter;stroke-width:0.369956;"/>
   </g>
   <g id="patch_88">
    <path clip-path="url(#p10bac622c7)" d="M 394.090909 318.2 
L 397.704545 318.2 
L 397.704545 243.672896 
L 394.090909 243.672896 
z
" style="fill:#1f77b4;fill-opacity:0.75;stroke:#000000;stroke-linejoin:miter;stroke-width:0.369956;"/>
   </g>
   <g id="patch_89">
    <path clip-path="url(#p10bac622c7)" d="M 397.704545 318.2 
L 401.318182 318.2 
L 401.318182 246.265143 
L 397.704545 246.265143 
z
" style="fill:#1f77b4;fill-opacity:0.75;stroke:#000000;stroke-linejoin:miter;stroke-width:0.369956;"/>
   </g>
   <g id="patch_90">
    <path clip-path="url(#p10bac622c7)" d="M 401.318182 318.2 
L 404.931818 318.2 
L 404.931818 231.197707 
L 401.318182 231.197707 
z
" style="fill:#1f77b4;fill-opacity:0.75;stroke:#000000;stroke-linejoin:miter;stroke-width:0.369956;"/>
   </g>
   <g id="patch_91">
    <path clip-path="url(#p10bac622c7)" d="M 404.931818 318.2 
L 408.545455 318.2 
L 408.545455 218.236472 
L 404.931818 218.236472 
z
" style="fill:#1f77b4;fill-opacity:0.75;stroke:#000000;stroke-linejoin:miter;stroke-width:0.369956;"/>
   </g>
   <g id="patch_92">
    <path clip-path="url(#p10bac622c7)" d="M 408.545455 318.2 
L 412.159091 318.2 
L 412.159091 225.689182 
L 408.545455 225.689182 
z
" style="fill:#1f77b4;fill-opacity:0.75;stroke:#000000;stroke-linejoin:miter;stroke-width:0.369956;"/>
   </g>
   <g id="patch_93">
    <path clip-path="url(#p10bac622c7)" d="M 412.159091 318.2 
L 415.772727 318.2 
L 415.772727 211.431823 
L 412.159091 211.431823 
z
" style="fill:#1f77b4;fill-opacity:0.75;stroke:#000000;stroke-linejoin:miter;stroke-width:0.369956;"/>
   </g>
   <g id="patch_94">
    <path clip-path="url(#p10bac622c7)" d="M 415.772727 318.2 
L 419.386364 318.2 
L 419.386364 187.453538 
L 415.772727 187.453538 
z
" style="fill:#1f77b4;fill-opacity:0.75;stroke:#000000;stroke-linejoin:miter;stroke-width:0.369956;"/>
   </g>
   <g id="patch_95">
    <path clip-path="url(#p10bac622c7)" d="M 419.386364 318.2 
L 423 318.2 
L 423 170.927963 
L 419.386364 170.927963 
z
" style="fill:#1f77b4;fill-opacity:0.75;stroke:#000000;stroke-linejoin:miter;stroke-width:0.369956;"/>
   </g>
   <g id="patch_96">
    <path clip-path="url(#p10bac622c7)" d="M 423 318.2 
L 426.613636 318.2 
L 426.613636 200.414773 
L 423 200.414773 
z
" style="fill:#1f77b4;fill-opacity:0.75;stroke:#000000;stroke-linejoin:miter;stroke-width:0.369956;"/>
   </g>
   <g id="patch_97">
    <path clip-path="url(#p10bac622c7)" d="M 426.613636 318.2 
L 430.227273 318.2 
L 430.227273 161.045021 
L 426.613636 161.045021 
z
" style="fill:#1f77b4;fill-opacity:0.75;stroke:#000000;stroke-linejoin:miter;stroke-width:0.369956;"/>
   </g>
   <g id="patch_98">
    <path clip-path="url(#p10bac622c7)" d="M 430.227273 318.2 
L 433.840909 318.2 
L 433.840909 163.313237 
L 430.227273 163.313237 
z
" style="fill:#1f77b4;fill-opacity:0.75;stroke:#000000;stroke-linejoin:miter;stroke-width:0.369956;"/>
   </g>
   <g id="patch_99">
    <path clip-path="url(#p10bac622c7)" d="M 433.840909 318.2 
L 437.454545 318.2 
L 437.454545 149.217893 
L 433.840909 149.217893 
z
" style="fill:#1f77b4;fill-opacity:0.75;stroke:#000000;stroke-linejoin:miter;stroke-width:0.369956;"/>
   </g>
   <g id="patch_100">
    <path clip-path="url(#p10bac622c7)" d="M 437.454545 318.2 
L 441.068182 318.2 
L 441.068182 144.681461 
L 437.454545 144.681461 
z
" style="fill:#1f77b4;fill-opacity:0.75;stroke:#000000;stroke-linejoin:miter;stroke-width:0.369956;"/>
   </g>
   <g id="patch_101">
    <path clip-path="url(#p10bac622c7)" d="M 441.068182 318.2 
L 444.681818 318.2 
L 444.681818 111.468295 
L 441.068182 111.468295 
z
" style="fill:#1f77b4;fill-opacity:0.75;stroke:#000000;stroke-linejoin:miter;stroke-width:0.369956;"/>
   </g>
   <g id="patch_102">
    <path clip-path="url(#p10bac622c7)" d="M 444.681818 318.2 
L 448.295455 318.2 
L 448.295455 108.065971 
L 444.681818 108.065971 
z
" style="fill:#1f77b4;fill-opacity:0.75;stroke:#000000;stroke-linejoin:miter;stroke-width:0.369956;"/>
   </g>
   <g id="patch_103">
    <path clip-path="url(#p10bac622c7)" d="M 448.295455 318.2 
L 451.909091 318.2 
L 451.909091 117.462867 
L 448.295455 117.462867 
z
" style="fill:#1f77b4;fill-opacity:0.75;stroke:#000000;stroke-linejoin:miter;stroke-width:0.369956;"/>
   </g>
   <g id="patch_104">
    <path clip-path="url(#p10bac622c7)" d="M 451.909091 318.2 
L 455.522727 318.2 
L 455.522727 109.686125 
L 451.909091 109.686125 
z
" style="fill:#1f77b4;fill-opacity:0.75;stroke:#000000;stroke-linejoin:miter;stroke-width:0.369956;"/>
   </g>
   <g id="patch_105">
    <path clip-path="url(#p10bac622c7)" d="M 455.522727 318.2 
L 459.136364 318.2 
L 459.136364 67.56211 
L 455.522727 67.56211 
z
" style="fill:#1f77b4;fill-opacity:0.75;stroke:#000000;stroke-linejoin:miter;stroke-width:0.369956;"/>
   </g>
   <g id="patch_106">
    <path clip-path="url(#p10bac622c7)" d="M 459.136364 318.2 
L 462.75 318.2 
L 462.75 86.193886 
L 459.136364 86.193886 
z
" style="fill:#1f77b4;fill-opacity:0.75;stroke:#000000;stroke-linejoin:miter;stroke-width:0.369956;"/>
   </g>
   <g id="patch_107">
    <path clip-path="url(#p10bac622c7)" d="M 462.75 318.2 
L 466.363636 318.2 
L 466.363636 68.372188 
L 462.75 68.372188 
z
" style="fill:#1f77b4;fill-opacity:0.75;stroke:#000000;stroke-linejoin:miter;stroke-width:0.369956;"/>
   </g>
   <g id="patch_108">
    <path clip-path="url(#p10bac622c7)" d="M 466.363636 318.2 
L 469.977273 318.2 
L 469.977273 63.349709 
L 466.363636 63.349709 
z
" style="fill:#1f77b4;fill-opacity:0.75;stroke:#000000;stroke-linejoin:miter;stroke-width:0.369956;"/>
   </g>
   <g id="patch_109">
    <path clip-path="url(#p10bac622c7)" d="M 469.977273 318.2 
L 473.590909 318.2 
L 473.590909 43.583825 
L 469.977273 43.583825 
z
" style="fill:#1f77b4;fill-opacity:0.75;stroke:#000000;stroke-linejoin:miter;stroke-width:0.369956;"/>
   </g>
   <g id="patch_110">
    <path clip-path="url(#p10bac622c7)" d="M 473.590909 318.2 
L 477.204545 318.2 
L 477.204545 51.684597 
L 473.590909 51.684597 
z
" style="fill:#1f77b4;fill-opacity:0.75;stroke:#000000;stroke-linejoin:miter;stroke-width:0.369956;"/>
   </g>
   <g id="patch_111">
    <path clip-path="url(#p10bac622c7)" d="M 477.204545 318.2 
L 480.818182 318.2 
L 480.818182 40.991578 
L 477.204545 40.991578 
z
" style="fill:#1f77b4;fill-opacity:0.75;stroke:#000000;stroke-linejoin:miter;stroke-width:0.369956;"/>
   </g>
   <g id="patch_112">
    <path clip-path="url(#p10bac622c7)" d="M 480.818182 318.2 
L 484.431818 318.2 
L 484.431818 50.87452 
L 480.818182 50.87452 
z
" style="fill:#1f77b4;fill-opacity:0.75;stroke:#000000;stroke-linejoin:miter;stroke-width:0.369956;"/>
   </g>
   <g id="patch_113">
    <path clip-path="url(#p10bac622c7)" d="M 484.431818 318.2 
L 488.045455 318.2 
L 488.045455 25.438095 
L 484.431818 25.438095 
z
" style="fill:#1f77b4;fill-opacity:0.75;stroke:#000000;stroke-linejoin:miter;stroke-width:0.369956;"/>
   </g>
   <g id="patch_114">
    <path clip-path="url(#p10bac622c7)" d="M 488.045455 318.2 
L 491.659091 318.2 
L 491.659091 35.969099 
L 488.045455 35.969099 
z
" style="fill:#1f77b4;fill-opacity:0.75;stroke:#000000;stroke-linejoin:miter;stroke-width:0.369956;"/>
   </g>
   <g id="patch_115">
    <path clip-path="url(#p10bac622c7)" d="M 491.659091 318.2 
L 495.272727 318.2 
L 495.272727 42.125686 
L 491.659091 42.125686 
z
" style="fill:#1f77b4;fill-opacity:0.75;stroke:#000000;stroke-linejoin:miter;stroke-width:0.369956;"/>
   </g>
   <g id="patch_116">
    <path clip-path="url(#p10bac622c7)" d="M 495.272727 318.2 
L 498.886364 318.2 
L 498.886364 53.142736 
L 495.272727 53.142736 
z
" style="fill:#1f77b4;fill-opacity:0.75;stroke:#000000;stroke-linejoin:miter;stroke-width:0.369956;"/>
   </g>
   <g id="patch_117">
    <path clip-path="url(#p10bac622c7)" d="M 498.886364 318.2 
L 502.5 318.2 
L 502.5 67.724126 
L 498.886364 67.724126 
z
" style="fill:#1f77b4;fill-opacity:0.75;stroke:#000000;stroke-linejoin:miter;stroke-width:0.369956;"/>
   </g>
   <g id="patch_118">
    <path clip-path="url(#p10bac622c7)" d="M 502.5 318.2 
L 506.113636 318.2 
L 506.113636 72.584589 
L 502.5 72.584589 
z
" style="fill:#1f77b4;fill-opacity:0.75;stroke:#000000;stroke-linejoin:miter;stroke-width:0.369956;"/>
   </g>
   <g id="patch_119">
    <path clip-path="url(#p10bac622c7)" d="M 506.113636 318.2 
L 509.727273 318.2 
L 509.727273 76.47296 
L 506.113636 76.47296 
z
" style="fill:#1f77b4;fill-opacity:0.75;stroke:#000000;stroke-linejoin:miter;stroke-width:0.369956;"/>
   </g>
   <g id="patch_120">
    <path clip-path="url(#p10bac622c7)" d="M 509.727273 318.2 
L 513.340909 318.2 
L 513.340909 71.450481 
L 509.727273 71.450481 
z
" style="fill:#1f77b4;fill-opacity:0.75;stroke:#000000;stroke-linejoin:miter;stroke-width:0.369956;"/>
   </g>
   <g id="patch_121">
    <path clip-path="url(#p10bac622c7)" d="M 513.340909 318.2 
L 516.954545 318.2 
L 516.954545 111.144264 
L 513.340909 111.144264 
z
" style="fill:#1f77b4;fill-opacity:0.75;stroke:#000000;stroke-linejoin:miter;stroke-width:0.369956;"/>
   </g>
   <g id="patch_122">
    <path clip-path="url(#p10bac622c7)" d="M 516.954545 318.2 
L 520.568182 318.2 
L 520.568182 114.87062 
L 516.954545 114.87062 
z
" style="fill:#1f77b4;fill-opacity:0.75;stroke:#000000;stroke-linejoin:miter;stroke-width:0.369956;"/>
   </g>
   <g id="patch_123">
    <path clip-path="url(#p10bac622c7)" d="M 520.568182 318.2 
L 524.181818 318.2 
L 524.181818 130.100071 
L 520.568182 130.100071 
z
" style="fill:#1f77b4;fill-opacity:0.75;stroke:#000000;stroke-linejoin:miter;stroke-width:0.369956;"/>
   </g>
   <g id="patch_124">
    <path clip-path="url(#p10bac622c7)" d="M 524.181818 318.2 
L 527.795455 318.2 
L 527.795455 124.915577 
L 524.181818 124.915577 
z
" style="fill:#1f77b4;fill-opacity:0.75;stroke:#000000;stroke-linejoin:miter;stroke-width:0.369956;"/>
   </g>
   <g id="patch_125">
    <path clip-path="url(#p10bac622c7)" d="M 527.795455 318.2 
L 531.409091 318.2 
L 531.409091 135.932627 
L 527.795455 135.932627 
z
" style="fill:#1f77b4;fill-opacity:0.75;stroke:#000000;stroke-linejoin:miter;stroke-width:0.369956;"/>
   </g>
   <g id="patch_126">
    <path clip-path="url(#p10bac622c7)" d="M 531.409091 318.2 
L 535.022727 318.2 
L 535.022727 175.626411 
L 531.409091 175.626411 
z
" style="fill:#1f77b4;fill-opacity:0.75;stroke:#000000;stroke-linejoin:miter;stroke-width:0.369956;"/>
   </g>
   <g id="patch_127">
    <path clip-path="url(#p10bac622c7)" d="M 535.022727 318.2 
L 538.636364 318.2 
L 538.636364 182.917105 
L 535.022727 182.917105 
z
" style="fill:#1f77b4;fill-opacity:0.75;stroke:#000000;stroke-linejoin:miter;stroke-width:0.369956;"/>
   </g>
   <g id="patch_128">
    <path clip-path="url(#p10bac622c7)" d="M 538.636364 318.2 
L 542.25 318.2 
L 542.25 192.476017 
L 538.636364 192.476017 
z
" style="fill:#1f77b4;fill-opacity:0.75;stroke:#000000;stroke-linejoin:miter;stroke-width:0.369956;"/>
   </g>
   <g id="patch_129">
    <path clip-path="url(#p10bac622c7)" d="M 542.25 318.2 
L 545.863636 318.2 
L 545.863636 200.90082 
L 542.25 200.90082 
z
" style="fill:#1f77b4;fill-opacity:0.75;stroke:#000000;stroke-linejoin:miter;stroke-width:0.369956;"/>
   </g>
   <g id="patch_130">
    <path clip-path="url(#p10bac622c7)" d="M 545.863636 318.2 
L 549.477273 318.2 
L 549.477273 217.264379 
L 545.863636 217.264379 
z
" style="fill:#1f77b4;fill-opacity:0.75;stroke:#000000;stroke-linejoin:miter;stroke-width:0.369956;"/>
   </g>
   <g id="patch_131">
    <path clip-path="url(#p10bac622c7)" d="M 549.477273 318.2 
L 553.090909 318.2 
L 553.090909 230.225615 
L 549.477273 230.225615 
z
" style="fill:#1f77b4;fill-opacity:0.75;stroke:#000000;stroke-linejoin:miter;stroke-width:0.369956;"/>
   </g>
   <g id="patch_132">
    <path clip-path="url(#p10bac622c7)" d="M 553.090909 318.2 
L 556.704545 318.2 
L 556.704545 242.538788 
L 553.090909 242.538788 
z
" style="fill:#1f77b4;fill-opacity:0.75;stroke:#000000;stroke-linejoin:miter;stroke-width:0.369956;"/>
   </g>
   <g id="patch_133">
    <path clip-path="url(#p10bac622c7)" d="M 556.704545 318.2 
L 560.318182 318.2 
L 560.318182 249.505452 
L 556.704545 249.505452 
z
" style="fill:#1f77b4;fill-opacity:0.75;stroke:#000000;stroke-linejoin:miter;stroke-width:0.369956;"/>
   </g>
   <g id="patch_134">
    <path clip-path="url(#p10bac622c7)" d="M 560.318182 318.2 
L 563.931818 318.2 
L 563.931818 255.500024 
L 560.318182 255.500024 
z
" style="fill:#1f77b4;fill-opacity:0.75;stroke:#000000;stroke-linejoin:miter;stroke-width:0.369956;"/>
   </g>
   <g id="patch_135">
    <path clip-path="url(#p10bac622c7)" d="M 563.931818 318.2 
L 567.545455 318.2 
L 567.545455 258.092271 
L 563.931818 258.092271 
z
" style="fill:#1f77b4;fill-opacity:0.75;stroke:#000000;stroke-linejoin:miter;stroke-width:0.369956;"/>
   </g>
   <g id="patch_136">
    <path clip-path="url(#p10bac622c7)" d="M 567.545455 318.2 
L 571.159091 318.2 
L 571.159091 271.377537 
L 567.545455 271.377537 
z
" style="fill:#1f77b4;fill-opacity:0.75;stroke:#000000;stroke-linejoin:miter;stroke-width:0.369956;"/>
   </g>
   <g id="patch_137">
    <path clip-path="url(#p10bac622c7)" d="M 571.159091 318.2 
L 574.772727 318.2 
L 574.772727 274.779861 
L 571.159091 274.779861 
z
" style="fill:#1f77b4;fill-opacity:0.75;stroke:#000000;stroke-linejoin:miter;stroke-width:0.369956;"/>
   </g>
   <g id="patch_138">
    <path clip-path="url(#p10bac622c7)" d="M 574.772727 318.2 
L 578.386364 318.2 
L 578.386364 272.997692 
L 574.772727 272.997692 
z
" style="fill:#1f77b4;fill-opacity:0.75;stroke:#000000;stroke-linejoin:miter;stroke-width:0.369956;"/>
   </g>
   <g id="patch_139">
    <path clip-path="url(#p10bac622c7)" d="M 578.386364 318.2 
L 582 318.2 
L 582 282.232572 
L 578.386364 282.232572 
z
" style="fill:#1f77b4;fill-opacity:0.75;stroke:#000000;stroke-linejoin:miter;stroke-width:0.369956;"/>
   </g>
   <g id="patch_140">
    <path clip-path="url(#p10bac622c7)" d="M 582 318.2 
L 585.613636 318.2 
L 585.613636 288.713189 
L 582 288.713189 
z
" style="fill:#1f77b4;fill-opacity:0.75;stroke:#000000;stroke-linejoin:miter;stroke-width:0.369956;"/>
   </g>
   <g id="patch_141">
    <path clip-path="url(#p10bac622c7)" d="M 585.613636 318.2 
L 589.227273 318.2 
L 589.227273 296.003884 
L 585.613636 296.003884 
z
" style="fill:#1f77b4;fill-opacity:0.75;stroke:#000000;stroke-linejoin:miter;stroke-width:0.369956;"/>
   </g>
   <g id="patch_142">
    <path clip-path="url(#p10bac622c7)" d="M 589.227273 318.2 
L 592.840909 318.2 
L 592.840909 295.517838 
L 589.227273 295.517838 
z
" style="fill:#1f77b4;fill-opacity:0.75;stroke:#000000;stroke-linejoin:miter;stroke-width:0.369956;"/>
   </g>
   <g id="patch_143">
    <path clip-path="url(#p10bac622c7)" d="M 592.840909 318.2 
L 596.454545 318.2 
L 596.454545 301.83644 
L 592.840909 301.83644 
z
" style="fill:#1f77b4;fill-opacity:0.75;stroke:#000000;stroke-linejoin:miter;stroke-width:0.369956;"/>
   </g>
   <g id="patch_144">
    <path clip-path="url(#p10bac622c7)" d="M 596.454545 318.2 
L 600.068182 318.2 
L 600.068182 302.970548 
L 596.454545 302.970548 
z
" style="fill:#1f77b4;fill-opacity:0.75;stroke:#000000;stroke-linejoin:miter;stroke-width:0.369956;"/>
   </g>
   <g id="patch_145">
    <path clip-path="url(#p10bac622c7)" d="M 600.068182 318.2 
L 603.681818 318.2 
L 603.681818 308.317058 
L 600.068182 308.317058 
z
" style="fill:#1f77b4;fill-opacity:0.75;stroke:#000000;stroke-linejoin:miter;stroke-width:0.369956;"/>
   </g>
   <g id="patch_146">
    <path clip-path="url(#p10bac622c7)" d="M 603.681818 318.2 
L 607.295455 318.2 
L 607.295455 308.155043 
L 603.681818 308.155043 
z
" style="fill:#1f77b4;fill-opacity:0.75;stroke:#000000;stroke-linejoin:miter;stroke-width:0.369956;"/>
   </g>
   <g id="patch_147">
    <path clip-path="url(#p10bac622c7)" d="M 607.295455 318.2 
L 610.909091 318.2 
L 610.909091 308.96512 
L 607.295455 308.96512 
z
" style="fill:#1f77b4;fill-opacity:0.75;stroke:#000000;stroke-linejoin:miter;stroke-width:0.369956;"/>
   </g>
   <g id="patch_148">
    <path clip-path="url(#p10bac622c7)" d="M 610.909091 318.2 
L 614.522727 318.2 
L 614.522727 310.261243 
L 610.909091 310.261243 
z
" style="fill:#1f77b4;fill-opacity:0.75;stroke:#000000;stroke-linejoin:miter;stroke-width:0.369956;"/>
   </g>
   <g id="patch_149">
    <path clip-path="url(#p10bac622c7)" d="M 614.522727 318.2 
L 618.136364 318.2 
L 618.136364 310.909305 
L 614.522727 310.909305 
z
" style="fill:#1f77b4;fill-opacity:0.75;stroke:#000000;stroke-linejoin:miter;stroke-width:0.369956;"/>
   </g>
   <g id="patch_150">
    <path clip-path="url(#p10bac622c7)" d="M 618.136364 318.2 
L 621.75 318.2 
L 621.75 313.501552 
L 618.136364 313.501552 
z
" style="fill:#1f77b4;fill-opacity:0.75;stroke:#000000;stroke-linejoin:miter;stroke-width:0.369956;"/>
   </g>
   <g id="patch_151">
    <path clip-path="url(#p10bac622c7)" d="M 621.75 318.2 
L 625.363636 318.2 
L 625.363636 315.445737 
L 621.75 315.445737 
z
" style="fill:#1f77b4;fill-opacity:0.75;stroke:#000000;stroke-linejoin:miter;stroke-width:0.369956;"/>
   </g>
   <g id="patch_152">
    <path clip-path="url(#p10bac622c7)" d="M 625.363636 318.2 
L 628.977273 318.2 
L 628.977273 314.311629 
L 625.363636 314.311629 
z
" style="fill:#1f77b4;fill-opacity:0.75;stroke:#000000;stroke-linejoin:miter;stroke-width:0.369956;"/>
   </g>
   <g id="patch_153">
    <path clip-path="url(#p10bac622c7)" d="M 628.977273 318.2 
L 632.590909 318.2 
L 632.590909 315.445737 
L 628.977273 315.445737 
z
" style="fill:#1f77b4;fill-opacity:0.75;stroke:#000000;stroke-linejoin:miter;stroke-width:0.369956;"/>
   </g>
   <g id="patch_154">
    <path clip-path="url(#p10bac622c7)" d="M 632.590909 318.2 
L 636.204545 318.2 
L 636.204545 315.607753 
L 632.590909 315.607753 
z
" style="fill:#1f77b4;fill-opacity:0.75;stroke:#000000;stroke-linejoin:miter;stroke-width:0.369956;"/>
   </g>
   <g id="patch_155">
    <path clip-path="url(#p10bac622c7)" d="M 636.204545 318.2 
L 639.818182 318.2 
L 639.818182 316.41783 
L 636.204545 316.41783 
z
" style="fill:#1f77b4;fill-opacity:0.75;stroke:#000000;stroke-linejoin:miter;stroke-width:0.369956;"/>
   </g>
   <g id="patch_156">
    <path clip-path="url(#p10bac622c7)" d="M 639.818182 318.2 
L 643.431818 318.2 
L 643.431818 317.227907 
L 639.818182 317.227907 
z
" style="fill:#1f77b4;fill-opacity:0.75;stroke:#000000;stroke-linejoin:miter;stroke-width:0.369956;"/>
   </g>
   <g id="patch_157">
    <path clip-path="url(#p10bac622c7)" d="M 643.431818 318.2 
L 647.045455 318.2 
L 647.045455 316.903876 
L 643.431818 316.903876 
z
" style="fill:#1f77b4;fill-opacity:0.75;stroke:#000000;stroke-linejoin:miter;stroke-width:0.369956;"/>
   </g>
   <g id="patch_158">
    <path clip-path="url(#p10bac622c7)" d="M 647.045455 318.2 
L 650.659091 318.2 
L 650.659091 317.065892 
L 647.045455 317.065892 
z
" style="fill:#1f77b4;fill-opacity:0.75;stroke:#000000;stroke-linejoin:miter;stroke-width:0.369956;"/>
   </g>
   <g id="patch_159">
    <path clip-path="url(#p10bac622c7)" d="M 650.659091 318.2 
L 654.272727 318.2 
L 654.272727 317.227907 
L 650.659091 317.227907 
z
" style="fill:#1f77b4;fill-opacity:0.75;stroke:#000000;stroke-linejoin:miter;stroke-width:0.369956;"/>
   </g>
   <g id="patch_160">
    <path clip-path="url(#p10bac622c7)" d="M 654.272727 318.2 
L 657.886364 318.2 
L 657.886364 317.713954 
L 654.272727 317.713954 
z
" style="fill:#1f77b4;fill-opacity:0.75;stroke:#000000;stroke-linejoin:miter;stroke-width:0.369956;"/>
   </g>
   <g id="patch_161">
    <path clip-path="url(#p10bac622c7)" d="M 657.886364 318.2 
L 661.5 318.2 
L 661.5 317.713954 
L 657.886364 317.713954 
z
" style="fill:#1f77b4;fill-opacity:0.75;stroke:#000000;stroke-linejoin:miter;stroke-width:0.369956;"/>
   </g>
   <g id="patch_162">
    <path clip-path="url(#p10bac622c7)" d="M 661.5 318.2 
L 665.113636 318.2 
L 665.113636 317.875969 
L 661.5 317.875969 
z
" style="fill:#1f77b4;fill-opacity:0.75;stroke:#000000;stroke-linejoin:miter;stroke-width:0.369956;"/>
   </g>
   <g id="patch_163">
    <path clip-path="url(#p10bac622c7)" d="M 665.113636 318.2 
L 668.727273 318.2 
L 668.727273 317.875969 
L 665.113636 317.875969 
z
" style="fill:#1f77b4;fill-opacity:0.75;stroke:#000000;stroke-linejoin:miter;stroke-width:0.369956;"/>
   </g>
   <g id="patch_164">
    <path clip-path="url(#p10bac622c7)" d="M 668.727273 318.2 
L 672.340909 318.2 
L 672.340909 317.875969 
L 668.727273 317.875969 
z
" style="fill:#1f77b4;fill-opacity:0.75;stroke:#000000;stroke-linejoin:miter;stroke-width:0.369956;"/>
   </g>
   <g id="patch_165">
    <path clip-path="url(#p10bac622c7)" d="M 672.340909 318.2 
L 675.954545 318.2 
L 675.954545 317.875969 
L 672.340909 317.875969 
z
" style="fill:#1f77b4;fill-opacity:0.75;stroke:#000000;stroke-linejoin:miter;stroke-width:0.369956;"/>
   </g>
   <g id="patch_166">
    <path clip-path="url(#p10bac622c7)" d="M 675.954545 318.2 
L 679.568182 318.2 
L 679.568182 318.037985 
L 675.954545 318.037985 
z
" style="fill:#1f77b4;fill-opacity:0.75;stroke:#000000;stroke-linejoin:miter;stroke-width:0.369956;"/>
   </g>
   <g id="matplotlib.axis_1">
    <g id="xtick_1">
     <g id="line2d_1">
      <defs>
       <path d="M 0 0 
L 0 3.5 
" id="m98fcb429b6" style="stroke:#000000;stroke-width:0.8;"/>
      </defs>
      <g>
       <use style="stroke:#000000;stroke-width:0.8;" x="73.303972" xlink:href="#m98fcb429b6" y="318.2"/>
      </g>
     </g>
     <g id="text_1">
      <!-- −4.5 -->
      <g transform="translate(61.162566 332.798437)scale(0.1 -0.1)">
       <defs>
        <path d="M 10.59375 35.5 
L 73.1875 35.5 
L 73.1875 27.203125 
L 10.59375 27.203125 
z
" id="DejaVuSans-8722"/>
        <path d="M 37.796875 64.3125 
L 12.890625 25.390625 
L 37.796875 25.390625 
z
M 35.203125 72.90625 
L 47.609375 72.90625 
L 47.609375 25.390625 
L 58.015625 25.390625 
L 58.015625 17.1875 
L 47.609375 17.1875 
L 47.609375 0 
L 37.796875 0 
L 37.796875 17.1875 
L 4.890625 17.1875 
L 4.890625 26.703125 
z
" id="DejaVuSans-52"/>
        <path d="M 10.6875 12.40625 
L 21 12.40625 
L 21 0 
L 10.6875 0 
z
" id="DejaVuSans-46"/>
        <path d="M 10.796875 72.90625 
L 49.515625 72.90625 
L 49.515625 64.59375 
L 19.828125 64.59375 
L 19.828125 46.734375 
Q 21.96875 47.46875 24.109375 47.828125 
Q 26.265625 48.1875 28.421875 48.1875 
Q 40.625 48.1875 47.75 41.5 
Q 54.890625 34.8125 54.890625 23.390625 
Q 54.890625 11.625 47.5625 5.09375 
Q 40.234375 -1.421875 26.90625 -1.421875 
Q 22.3125 -1.421875 17.546875 -0.640625 
Q 12.796875 0.140625 7.71875 1.703125 
L 7.71875 11.625 
Q 12.109375 9.234375 16.796875 8.0625 
Q 21.484375 6.890625 26.703125 6.890625 
Q 35.15625 6.890625 40.078125 11.328125 
Q 45.015625 15.765625 45.015625 23.390625 
Q 45.015625 31 40.078125 35.4375 
Q 35.15625 39.890625 26.703125 39.890625 
Q 22.75 39.890625 18.8125 39.015625 
Q 14.890625 38.140625 10.796875 36.28125 
z
" id="DejaVuSans-53"/>
       </defs>
       <use xlink:href="#DejaVuSans-8722"/>
       <use x="83.789062" xlink:href="#DejaVuSans-52"/>
       <use x="147.412109" xlink:href="#DejaVuSans-46"/>
       <use x="179.199219" xlink:href="#DejaVuSans-53"/>
      </g>
     </g>
    </g>
    <g id="xtick_2">
     <g id="line2d_2">
      <g>
       <use style="stroke:#000000;stroke-width:0.8;" x="186.674735" xlink:href="#m98fcb429b6" y="318.2"/>
      </g>
     </g>
     <g id="text_2">
      <!-- −4.0 -->
      <g transform="translate(174.533328 332.798437)scale(0.1 -0.1)">
       <defs>
        <path d="M 31.78125 66.40625 
Q 24.171875 66.40625 20.328125 58.90625 
Q 16.5 51.421875 16.5 36.375 
Q 16.5 21.390625 20.328125 13.890625 
Q 24.171875 6.390625 31.78125 6.390625 
Q 39.453125 6.390625 43.28125 13.890625 
Q 47.125 21.390625 47.125 36.375 
Q 47.125 51.421875 43.28125 58.90625 
Q 39.453125 66.40625 31.78125 66.40625 
z
M 31.78125 74.21875 
Q 44.046875 74.21875 50.515625 64.515625 
Q 56.984375 54.828125 56.984375 36.375 
Q 56.984375 17.96875 50.515625 8.265625 
Q 44.046875 -1.421875 31.78125 -1.421875 
Q 19.53125 -1.421875 13.0625 8.265625 
Q 6.59375 17.96875 6.59375 36.375 
Q 6.59375 54.828125 13.0625 64.515625 
Q 19.53125 74.21875 31.78125 74.21875 
z
" id="DejaVuSans-48"/>
       </defs>
       <use xlink:href="#DejaVuSans-8722"/>
       <use x="83.789062" xlink:href="#DejaVuSans-52"/>
       <use x="147.412109" xlink:href="#DejaVuSans-46"/>
       <use x="179.199219" xlink:href="#DejaVuSans-48"/>
      </g>
     </g>
    </g>
    <g id="xtick_3">
     <g id="line2d_3">
      <g>
       <use style="stroke:#000000;stroke-width:0.8;" x="300.045497" xlink:href="#m98fcb429b6" y="318.2"/>
      </g>
     </g>
     <g id="text_3">
      <!-- −3.5 -->
      <g transform="translate(287.904091 332.798437)scale(0.1 -0.1)">
       <defs>
        <path d="M 40.578125 39.3125 
Q 47.65625 37.796875 51.625 33 
Q 55.609375 28.21875 55.609375 21.1875 
Q 55.609375 10.40625 48.1875 4.484375 
Q 40.765625 -1.421875 27.09375 -1.421875 
Q 22.515625 -1.421875 17.65625 -0.515625 
Q 12.796875 0.390625 7.625 2.203125 
L 7.625 11.71875 
Q 11.71875 9.328125 16.59375 8.109375 
Q 21.484375 6.890625 26.8125 6.890625 
Q 36.078125 6.890625 40.9375 10.546875 
Q 45.796875 14.203125 45.796875 21.1875 
Q 45.796875 27.640625 41.28125 31.265625 
Q 36.765625 34.90625 28.71875 34.90625 
L 20.21875 34.90625 
L 20.21875 43.015625 
L 29.109375 43.015625 
Q 36.375 43.015625 40.234375 45.921875 
Q 44.09375 48.828125 44.09375 54.296875 
Q 44.09375 59.90625 40.109375 62.90625 
Q 36.140625 65.921875 28.71875 65.921875 
Q 24.65625 65.921875 20.015625 65.03125 
Q 15.375 64.15625 9.8125 62.3125 
L 9.8125 71.09375 
Q 15.4375 72.65625 20.34375 73.4375 
Q 25.25 74.21875 29.59375 74.21875 
Q 40.828125 74.21875 47.359375 69.109375 
Q 53.90625 64.015625 53.90625 55.328125 
Q 53.90625 49.265625 50.4375 45.09375 
Q 46.96875 40.921875 40.578125 39.3125 
z
" id="DejaVuSans-51"/>
       </defs>
       <use xlink:href="#DejaVuSans-8722"/>
       <use x="83.789062" xlink:href="#DejaVuSans-51"/>
       <use x="147.412109" xlink:href="#DejaVuSans-46"/>
       <use x="179.199219" xlink:href="#DejaVuSans-53"/>
      </g>
     </g>
    </g>
    <g id="xtick_4">
     <g id="line2d_4">
      <g>
       <use style="stroke:#000000;stroke-width:0.8;" x="413.416259" xlink:href="#m98fcb429b6" y="318.2"/>
      </g>
     </g>
     <g id="text_4">
      <!-- −3.0 -->
      <g transform="translate(401.274853 332.798437)scale(0.1 -0.1)">
       <use xlink:href="#DejaVuSans-8722"/>
       <use x="83.789062" xlink:href="#DejaVuSans-51"/>
       <use x="147.412109" xlink:href="#DejaVuSans-46"/>
       <use x="179.199219" xlink:href="#DejaVuSans-48"/>
      </g>
     </g>
    </g>
    <g id="xtick_5">
     <g id="line2d_5">
      <g>
       <use style="stroke:#000000;stroke-width:0.8;" x="526.787022" xlink:href="#m98fcb429b6" y="318.2"/>
      </g>
     </g>
     <g id="text_5">
      <!-- −2.5 -->
      <g transform="translate(514.645615 332.798437)scale(0.1 -0.1)">
       <defs>
        <path d="M 19.1875 8.296875 
L 53.609375 8.296875 
L 53.609375 0 
L 7.328125 0 
L 7.328125 8.296875 
Q 12.9375 14.109375 22.625 23.890625 
Q 32.328125 33.6875 34.8125 36.53125 
Q 39.546875 41.84375 41.421875 45.53125 
Q 43.3125 49.21875 43.3125 52.78125 
Q 43.3125 58.59375 39.234375 62.25 
Q 35.15625 65.921875 28.609375 65.921875 
Q 23.96875 65.921875 18.8125 64.3125 
Q 13.671875 62.703125 7.8125 59.421875 
L 7.8125 69.390625 
Q 13.765625 71.78125 18.9375 73 
Q 24.125 74.21875 28.421875 74.21875 
Q 39.75 74.21875 46.484375 68.546875 
Q 53.21875 62.890625 53.21875 53.421875 
Q 53.21875 48.921875 51.53125 44.890625 
Q 49.859375 40.875 45.40625 35.40625 
Q 44.1875 33.984375 37.640625 27.21875 
Q 31.109375 20.453125 19.1875 8.296875 
z
" id="DejaVuSans-50"/>
       </defs>
       <use xlink:href="#DejaVuSans-8722"/>
       <use x="83.789062" xlink:href="#DejaVuSans-50"/>
       <use x="147.412109" xlink:href="#DejaVuSans-46"/>
       <use x="179.199219" xlink:href="#DejaVuSans-53"/>
      </g>
     </g>
    </g>
    <g id="xtick_6">
     <g id="line2d_6">
      <g>
       <use style="stroke:#000000;stroke-width:0.8;" x="640.157784" xlink:href="#m98fcb429b6" y="318.2"/>
      </g>
     </g>
     <g id="text_6">
      <!-- −2.0 -->
      <g transform="translate(628.016378 332.798437)scale(0.1 -0.1)">
       <use xlink:href="#DejaVuSans-8722"/>
       <use x="83.789062" xlink:href="#DejaVuSans-50"/>
       <use x="147.412109" xlink:href="#DejaVuSans-46"/>
       <use x="179.199219" xlink:href="#DejaVuSans-48"/>
      </g>
     </g>
    </g>
    <g id="text_7">
     <!-- LogDC -->
     <g transform="translate(366.976562 346.476562)scale(0.1 -0.1)">
      <defs>
       <path d="M 9.8125 72.90625 
L 19.671875 72.90625 
L 19.671875 8.296875 
L 55.171875 8.296875 
L 55.171875 0 
L 9.8125 0 
z
" id="DejaVuSans-76"/>
       <path d="M 30.609375 48.390625 
Q 23.390625 48.390625 19.1875 42.75 
Q 14.984375 37.109375 14.984375 27.296875 
Q 14.984375 17.484375 19.15625 11.84375 
Q 23.34375 6.203125 30.609375 6.203125 
Q 37.796875 6.203125 41.984375 11.859375 
Q 46.1875 17.53125 46.1875 27.296875 
Q 46.1875 37.015625 41.984375 42.703125 
Q 37.796875 48.390625 30.609375 48.390625 
z
M 30.609375 56 
Q 42.328125 56 49.015625 48.375 
Q 55.71875 40.765625 55.71875 27.296875 
Q 55.71875 13.875 49.015625 6.21875 
Q 42.328125 -1.421875 30.609375 -1.421875 
Q 18.84375 -1.421875 12.171875 6.21875 
Q 5.515625 13.875 5.515625 27.296875 
Q 5.515625 40.765625 12.171875 48.375 
Q 18.84375 56 30.609375 56 
z
" id="DejaVuSans-111"/>
       <path d="M 45.40625 27.984375 
Q 45.40625 37.75 41.375 43.109375 
Q 37.359375 48.484375 30.078125 48.484375 
Q 22.859375 48.484375 18.828125 43.109375 
Q 14.796875 37.75 14.796875 27.984375 
Q 14.796875 18.265625 18.828125 12.890625 
Q 22.859375 7.515625 30.078125 7.515625 
Q 37.359375 7.515625 41.375 12.890625 
Q 45.40625 18.265625 45.40625 27.984375 
z
M 54.390625 6.78125 
Q 54.390625 -7.171875 48.1875 -13.984375 
Q 42 -20.796875 29.203125 -20.796875 
Q 24.46875 -20.796875 20.265625 -20.09375 
Q 16.0625 -19.390625 12.109375 -17.921875 
L 12.109375 -9.1875 
Q 16.0625 -11.328125 19.921875 -12.34375 
Q 23.78125 -13.375 27.78125 -13.375 
Q 36.625 -13.375 41.015625 -8.765625 
Q 45.40625 -4.15625 45.40625 5.171875 
L 45.40625 9.625 
Q 42.625 4.78125 38.28125 2.390625 
Q 33.9375 0 27.875 0 
Q 17.828125 0 11.671875 7.65625 
Q 5.515625 15.328125 5.515625 27.984375 
Q 5.515625 40.671875 11.671875 48.328125 
Q 17.828125 56 27.875 56 
Q 33.9375 56 38.28125 53.609375 
Q 42.625 51.21875 45.40625 46.390625 
L 45.40625 54.6875 
L 54.390625 54.6875 
z
" id="DejaVuSans-103"/>
       <path d="M 19.671875 64.796875 
L 19.671875 8.109375 
L 31.59375 8.109375 
Q 46.6875 8.109375 53.6875 14.9375 
Q 60.6875 21.78125 60.6875 36.53125 
Q 60.6875 51.171875 53.6875 57.984375 
Q 46.6875 64.796875 31.59375 64.796875 
z
M 9.8125 72.90625 
L 30.078125 72.90625 
Q 51.265625 72.90625 61.171875 64.09375 
Q 71.09375 55.28125 71.09375 36.53125 
Q 71.09375 17.671875 61.125 8.828125 
Q 51.171875 0 30.078125 0 
L 9.8125 0 
z
" id="DejaVuSans-68"/>
       <path d="M 64.40625 67.28125 
L 64.40625 56.890625 
Q 59.421875 61.53125 53.78125 63.8125 
Q 48.140625 66.109375 41.796875 66.109375 
Q 29.296875 66.109375 22.65625 58.46875 
Q 16.015625 50.828125 16.015625 36.375 
Q 16.015625 21.96875 22.65625 14.328125 
Q 29.296875 6.6875 41.796875 6.6875 
Q 48.140625 6.6875 53.78125 8.984375 
Q 59.421875 11.28125 64.40625 15.921875 
L 64.40625 5.609375 
Q 59.234375 2.09375 53.4375 0.328125 
Q 47.65625 -1.421875 41.21875 -1.421875 
Q 24.65625 -1.421875 15.125 8.703125 
Q 5.609375 18.84375 5.609375 36.375 
Q 5.609375 53.953125 15.125 64.078125 
Q 24.65625 74.21875 41.21875 74.21875 
Q 47.75 74.21875 53.53125 72.484375 
Q 59.328125 70.75 64.40625 67.28125 
z
" id="DejaVuSans-67"/>
      </defs>
      <use xlink:href="#DejaVuSans-76"/>
      <use x="53.962891" xlink:href="#DejaVuSans-111"/>
      <use x="115.144531" xlink:href="#DejaVuSans-103"/>
      <use x="178.621094" xlink:href="#DejaVuSans-68"/>
      <use x="255.623047" xlink:href="#DejaVuSans-67"/>
     </g>
    </g>
   </g>
   <g id="matplotlib.axis_2">
    <g id="ytick_1">
     <g id="line2d_7">
      <defs>
       <path d="M 0 0 
L -3.5 0 
" id="mc74b0f08f4" style="stroke:#000000;stroke-width:0.8;"/>
      </defs>
      <g>
       <use style="stroke:#000000;stroke-width:0.8;" x="57.3" xlink:href="#mc74b0f08f4" y="318.2"/>
      </g>
     </g>
     <g id="text_8">
      <!-- 0 -->
      <g transform="translate(43.9375 321.999219)scale(0.1 -0.1)">
       <use xlink:href="#DejaVuSans-48"/>
      </g>
     </g>
    </g>
    <g id="ytick_2">
     <g id="line2d_8">
      <g>
       <use style="stroke:#000000;stroke-width:0.8;" x="57.3" xlink:href="#mc74b0f08f4" y="277.696139"/>
      </g>
     </g>
     <g id="text_9">
      <!-- 250 -->
      <g transform="translate(31.2125 281.495358)scale(0.1 -0.1)">
       <use xlink:href="#DejaVuSans-50"/>
       <use x="63.623047" xlink:href="#DejaVuSans-53"/>
       <use x="127.246094" xlink:href="#DejaVuSans-48"/>
      </g>
     </g>
    </g>
    <g id="ytick_3">
     <g id="line2d_9">
      <g>
       <use style="stroke:#000000;stroke-width:0.8;" x="57.3" xlink:href="#mc74b0f08f4" y="237.192279"/>
      </g>
     </g>
     <g id="text_10">
      <!-- 500 -->
      <g transform="translate(31.2125 240.991497)scale(0.1 -0.1)">
       <use xlink:href="#DejaVuSans-53"/>
       <use x="63.623047" xlink:href="#DejaVuSans-48"/>
       <use x="127.246094" xlink:href="#DejaVuSans-48"/>
      </g>
     </g>
    </g>
    <g id="ytick_4">
     <g id="line2d_10">
      <g>
       <use style="stroke:#000000;stroke-width:0.8;" x="57.3" xlink:href="#mc74b0f08f4" y="196.688418"/>
      </g>
     </g>
     <g id="text_11">
      <!-- 750 -->
      <g transform="translate(31.2125 200.487637)scale(0.1 -0.1)">
       <defs>
        <path d="M 8.203125 72.90625 
L 55.078125 72.90625 
L 55.078125 68.703125 
L 28.609375 0 
L 18.3125 0 
L 43.21875 64.59375 
L 8.203125 64.59375 
z
" id="DejaVuSans-55"/>
       </defs>
       <use xlink:href="#DejaVuSans-55"/>
       <use x="63.623047" xlink:href="#DejaVuSans-53"/>
       <use x="127.246094" xlink:href="#DejaVuSans-48"/>
      </g>
     </g>
    </g>
    <g id="ytick_5">
     <g id="line2d_11">
      <g>
       <use style="stroke:#000000;stroke-width:0.8;" x="57.3" xlink:href="#mc74b0f08f4" y="156.184557"/>
      </g>
     </g>
     <g id="text_12">
      <!-- 1000 -->
      <g transform="translate(24.85 159.983776)scale(0.1 -0.1)">
       <defs>
        <path d="M 12.40625 8.296875 
L 28.515625 8.296875 
L 28.515625 63.921875 
L 10.984375 60.40625 
L 10.984375 69.390625 
L 28.421875 72.90625 
L 38.28125 72.90625 
L 38.28125 8.296875 
L 54.390625 8.296875 
L 54.390625 0 
L 12.40625 0 
z
" id="DejaVuSans-49"/>
       </defs>
       <use xlink:href="#DejaVuSans-49"/>
       <use x="63.623047" xlink:href="#DejaVuSans-48"/>
       <use x="127.246094" xlink:href="#DejaVuSans-48"/>
       <use x="190.869141" xlink:href="#DejaVuSans-48"/>
      </g>
     </g>
    </g>
    <g id="ytick_6">
     <g id="line2d_12">
      <g>
       <use style="stroke:#000000;stroke-width:0.8;" x="57.3" xlink:href="#mc74b0f08f4" y="115.680697"/>
      </g>
     </g>
     <g id="text_13">
      <!-- 1250 -->
      <g transform="translate(24.85 119.479916)scale(0.1 -0.1)">
       <use xlink:href="#DejaVuSans-49"/>
       <use x="63.623047" xlink:href="#DejaVuSans-50"/>
       <use x="127.246094" xlink:href="#DejaVuSans-53"/>
       <use x="190.869141" xlink:href="#DejaVuSans-48"/>
      </g>
     </g>
    </g>
    <g id="ytick_7">
     <g id="line2d_13">
      <g>
       <use style="stroke:#000000;stroke-width:0.8;" x="57.3" xlink:href="#mc74b0f08f4" y="75.176836"/>
      </g>
     </g>
     <g id="text_14">
      <!-- 1500 -->
      <g transform="translate(24.85 78.976055)scale(0.1 -0.1)">
       <use xlink:href="#DejaVuSans-49"/>
       <use x="63.623047" xlink:href="#DejaVuSans-53"/>
       <use x="127.246094" xlink:href="#DejaVuSans-48"/>
       <use x="190.869141" xlink:href="#DejaVuSans-48"/>
      </g>
     </g>
    </g>
    <g id="ytick_8">
     <g id="line2d_14">
      <g>
       <use style="stroke:#000000;stroke-width:0.8;" x="57.3" xlink:href="#mc74b0f08f4" y="34.672975"/>
      </g>
     </g>
     <g id="text_15">
      <!-- 1750 -->
      <g transform="translate(24.85 38.472194)scale(0.1 -0.1)">
       <use xlink:href="#DejaVuSans-49"/>
       <use x="63.623047" xlink:href="#DejaVuSans-55"/>
       <use x="127.246094" xlink:href="#DejaVuSans-53"/>
       <use x="190.869141" xlink:href="#DejaVuSans-48"/>
      </g>
     </g>
    </g>
    <g id="text_16">
     <!-- Counts -->
     <g transform="translate(18.770312 181.953125)rotate(-90)scale(0.1 -0.1)">
      <defs>
       <path d="M 8.5 21.578125 
L 8.5 54.6875 
L 17.484375 54.6875 
L 17.484375 21.921875 
Q 17.484375 14.15625 20.5 10.265625 
Q 23.53125 6.390625 29.59375 6.390625 
Q 36.859375 6.390625 41.078125 11.03125 
Q 45.3125 15.671875 45.3125 23.6875 
L 45.3125 54.6875 
L 54.296875 54.6875 
L 54.296875 0 
L 45.3125 0 
L 45.3125 8.40625 
Q 42.046875 3.421875 37.71875 1 
Q 33.40625 -1.421875 27.6875 -1.421875 
Q 18.265625 -1.421875 13.375 4.4375 
Q 8.5 10.296875 8.5 21.578125 
z
M 31.109375 56 
z
" id="DejaVuSans-117"/>
       <path d="M 54.890625 33.015625 
L 54.890625 0 
L 45.90625 0 
L 45.90625 32.71875 
Q 45.90625 40.484375 42.875 44.328125 
Q 39.84375 48.1875 33.796875 48.1875 
Q 26.515625 48.1875 22.3125 43.546875 
Q 18.109375 38.921875 18.109375 30.90625 
L 18.109375 0 
L 9.078125 0 
L 9.078125 54.6875 
L 18.109375 54.6875 
L 18.109375 46.1875 
Q 21.34375 51.125 25.703125 53.5625 
Q 30.078125 56 35.796875 56 
Q 45.21875 56 50.046875 50.171875 
Q 54.890625 44.34375 54.890625 33.015625 
z
" id="DejaVuSans-110"/>
       <path d="M 18.3125 70.21875 
L 18.3125 54.6875 
L 36.8125 54.6875 
L 36.8125 47.703125 
L 18.3125 47.703125 
L 18.3125 18.015625 
Q 18.3125 11.328125 20.140625 9.421875 
Q 21.96875 7.515625 27.59375 7.515625 
L 36.8125 7.515625 
L 36.8125 0 
L 27.59375 0 
Q 17.1875 0 13.234375 3.875 
Q 9.28125 7.765625 9.28125 18.015625 
L 9.28125 47.703125 
L 2.6875 47.703125 
L 2.6875 54.6875 
L 9.28125 54.6875 
L 9.28125 70.21875 
z
" id="DejaVuSans-116"/>
       <path d="M 44.28125 53.078125 
L 44.28125 44.578125 
Q 40.484375 46.53125 36.375 47.5 
Q 32.28125 48.484375 27.875 48.484375 
Q 21.1875 48.484375 17.84375 46.4375 
Q 14.5 44.390625 14.5 40.28125 
Q 14.5 37.15625 16.890625 35.375 
Q 19.28125 33.59375 26.515625 31.984375 
L 29.59375 31.296875 
Q 39.15625 29.25 43.1875 25.515625 
Q 47.21875 21.78125 47.21875 15.09375 
Q 47.21875 7.46875 41.1875 3.015625 
Q 35.15625 -1.421875 24.609375 -1.421875 
Q 20.21875 -1.421875 15.453125 -0.5625 
Q 10.6875 0.296875 5.421875 2 
L 5.421875 11.28125 
Q 10.40625 8.6875 15.234375 7.390625 
Q 20.0625 6.109375 24.8125 6.109375 
Q 31.15625 6.109375 34.5625 8.28125 
Q 37.984375 10.453125 37.984375 14.40625 
Q 37.984375 18.0625 35.515625 20.015625 
Q 33.0625 21.96875 24.703125 23.78125 
L 21.578125 24.515625 
Q 13.234375 26.265625 9.515625 29.90625 
Q 5.8125 33.546875 5.8125 39.890625 
Q 5.8125 47.609375 11.28125 51.796875 
Q 16.75 56 26.8125 56 
Q 31.78125 56 36.171875 55.265625 
Q 40.578125 54.546875 44.28125 53.078125 
z
" id="DejaVuSans-115"/>
      </defs>
      <use xlink:href="#DejaVuSans-67"/>
      <use x="69.824219" xlink:href="#DejaVuSans-111"/>
      <use x="131.005859" xlink:href="#DejaVuSans-117"/>
      <use x="194.384766" xlink:href="#DejaVuSans-110"/>
      <use x="257.763672" xlink:href="#DejaVuSans-116"/>
      <use x="296.972656" xlink:href="#DejaVuSans-115"/>
     </g>
    </g>
   </g>
   <g id="line2d_15">
    <path clip-path="url(#p10bac622c7)" d="M 359.494091 318.2 
L 359.494091 10.8 
" style="fill:none;stroke:#ff0000;stroke-dasharray:5.55,2.4;stroke-dashoffset:0;stroke-width:1.5;"/>
   </g>
   <g id="line2d_16">
    <path clip-path="url(#p10bac622c7)" d="M 559.455008 318.2 
L 559.455008 10.8 
" style="fill:none;stroke:#ff0000;stroke-dasharray:5.55,2.4;stroke-dashoffset:0;stroke-width:1.5;"/>
   </g>
   <g id="patch_167">
    <path d="M 57.3 318.2 
L 57.3 10.8 
" style="fill:none;stroke:#000000;stroke-linecap:square;stroke-linejoin:miter;stroke-width:0.8;"/>
   </g>
   <g id="patch_168">
    <path d="M 57.3 318.2 
L 709.2 318.2 
" style="fill:none;stroke:#000000;stroke-linecap:square;stroke-linejoin:miter;stroke-width:0.8;"/>
   </g>
   <g id="text_17">
    <!-- LOW Conversion -->
    <g transform="translate(254.697192 48.302086)scale(0.12 -0.12)">
     <defs>
      <path d="M 39.40625 66.21875 
Q 28.65625 66.21875 22.328125 58.203125 
Q 16.015625 50.203125 16.015625 36.375 
Q 16.015625 22.609375 22.328125 14.59375 
Q 28.65625 6.59375 39.40625 6.59375 
Q 50.140625 6.59375 56.421875 14.59375 
Q 62.703125 22.609375 62.703125 36.375 
Q 62.703125 50.203125 56.421875 58.203125 
Q 50.140625 66.21875 39.40625 66.21875 
z
M 39.40625 74.21875 
Q 54.734375 74.21875 63.90625 63.9375 
Q 73.09375 53.65625 73.09375 36.375 
Q 73.09375 19.140625 63.90625 8.859375 
Q 54.734375 -1.421875 39.40625 -1.421875 
Q 24.03125 -1.421875 14.8125 8.828125 
Q 5.609375 19.09375 5.609375 36.375 
Q 5.609375 53.65625 14.8125 63.9375 
Q 24.03125 74.21875 39.40625 74.21875 
z
" id="DejaVuSans-79"/>
      <path d="M 3.328125 72.90625 
L 13.28125 72.90625 
L 28.609375 11.28125 
L 43.890625 72.90625 
L 54.984375 72.90625 
L 70.3125 11.28125 
L 85.59375 72.90625 
L 95.609375 72.90625 
L 77.296875 0 
L 64.890625 0 
L 49.515625 63.28125 
L 33.984375 0 
L 21.578125 0 
z
" id="DejaVuSans-87"/>
      <path id="DejaVuSans-32"/>
      <path d="M 2.984375 54.6875 
L 12.5 54.6875 
L 29.59375 8.796875 
L 46.6875 54.6875 
L 56.203125 54.6875 
L 35.6875 0 
L 23.484375 0 
z
" id="DejaVuSans-118"/>
      <path d="M 56.203125 29.59375 
L 56.203125 25.203125 
L 14.890625 25.203125 
Q 15.484375 15.921875 20.484375 11.0625 
Q 25.484375 6.203125 34.421875 6.203125 
Q 39.59375 6.203125 44.453125 7.46875 
Q 49.3125 8.734375 54.109375 11.28125 
L 54.109375 2.78125 
Q 49.265625 0.734375 44.1875 -0.34375 
Q 39.109375 -1.421875 33.890625 -1.421875 
Q 20.796875 -1.421875 13.15625 6.1875 
Q 5.515625 13.8125 5.515625 26.8125 
Q 5.515625 40.234375 12.765625 48.109375 
Q 20.015625 56 32.328125 56 
Q 43.359375 56 49.78125 48.890625 
Q 56.203125 41.796875 56.203125 29.59375 
z
M 47.21875 32.234375 
Q 47.125 39.59375 43.09375 43.984375 
Q 39.0625 48.390625 32.421875 48.390625 
Q 24.90625 48.390625 20.390625 44.140625 
Q 15.875 39.890625 15.1875 32.171875 
z
" id="DejaVuSans-101"/>
      <path d="M 41.109375 46.296875 
Q 39.59375 47.171875 37.8125 47.578125 
Q 36.03125 48 33.890625 48 
Q 26.265625 48 22.1875 43.046875 
Q 18.109375 38.09375 18.109375 28.8125 
L 18.109375 0 
L 9.078125 0 
L 9.078125 54.6875 
L 18.109375 54.6875 
L 18.109375 46.1875 
Q 20.953125 51.171875 25.484375 53.578125 
Q 30.03125 56 36.53125 56 
Q 37.453125 56 38.578125 55.875 
Q 39.703125 55.765625 41.0625 55.515625 
z
" id="DejaVuSans-114"/>
      <path d="M 9.421875 54.6875 
L 18.40625 54.6875 
L 18.40625 0 
L 9.421875 0 
z
M 9.421875 75.984375 
L 18.40625 75.984375 
L 18.40625 64.59375 
L 9.421875 64.59375 
z
" id="DejaVuSans-105"/>
     </defs>
     <use xlink:href="#DejaVuSans-76"/>
     <use x="52.087891" xlink:href="#DejaVuSans-79"/>
     <use x="130.798828" xlink:href="#DejaVuSans-87"/>
     <use x="229.675781" xlink:href="#DejaVuSans-32"/>
     <use x="261.462891" xlink:href="#DejaVuSans-67"/>
     <use x="331.287109" xlink:href="#DejaVuSans-111"/>
     <use x="392.46875" xlink:href="#DejaVuSans-110"/>
     <use x="455.847656" xlink:href="#DejaVuSans-118"/>
     <use x="515.027344" xlink:href="#DejaVuSans-101"/>
     <use x="576.550781" xlink:href="#DejaVuSans-114"/>
     <use x="617.664062" xlink:href="#DejaVuSans-115"/>
     <use x="669.763672" xlink:href="#DejaVuSans-105"/>
     <use x="697.546875" xlink:href="#DejaVuSans-111"/>
     <use x="758.728516" xlink:href="#DejaVuSans-110"/>
    </g>
    <!-- Bottom 5% -->
    <g transform="translate(254.697192 61.739461)scale(0.12 -0.12)">
     <defs>
      <path d="M 19.671875 34.8125 
L 19.671875 8.109375 
L 35.5 8.109375 
Q 43.453125 8.109375 47.28125 11.40625 
Q 51.125 14.703125 51.125 21.484375 
Q 51.125 28.328125 47.28125 31.5625 
Q 43.453125 34.8125 35.5 34.8125 
z
M 19.671875 64.796875 
L 19.671875 42.828125 
L 34.28125 42.828125 
Q 41.5 42.828125 45.03125 45.53125 
Q 48.578125 48.25 48.578125 53.8125 
Q 48.578125 59.328125 45.03125 62.0625 
Q 41.5 64.796875 34.28125 64.796875 
z
M 9.8125 72.90625 
L 35.015625 72.90625 
Q 46.296875 72.90625 52.390625 68.21875 
Q 58.5 63.53125 58.5 54.890625 
Q 58.5 48.1875 55.375 44.234375 
Q 52.25 40.28125 46.1875 39.3125 
Q 53.46875 37.75 57.5 32.78125 
Q 61.53125 27.828125 61.53125 20.40625 
Q 61.53125 10.640625 54.890625 5.3125 
Q 48.25 0 35.984375 0 
L 9.8125 0 
z
" id="DejaVuSans-66"/>
      <path d="M 52 44.1875 
Q 55.375 50.25 60.0625 53.125 
Q 64.75 56 71.09375 56 
Q 79.640625 56 84.28125 50.015625 
Q 88.921875 44.046875 88.921875 33.015625 
L 88.921875 0 
L 79.890625 0 
L 79.890625 32.71875 
Q 79.890625 40.578125 77.09375 44.375 
Q 74.3125 48.1875 68.609375 48.1875 
Q 61.625 48.1875 57.5625 43.546875 
Q 53.515625 38.921875 53.515625 30.90625 
L 53.515625 0 
L 44.484375 0 
L 44.484375 32.71875 
Q 44.484375 40.625 41.703125 44.40625 
Q 38.921875 48.1875 33.109375 48.1875 
Q 26.21875 48.1875 22.15625 43.53125 
Q 18.109375 38.875 18.109375 30.90625 
L 18.109375 0 
L 9.078125 0 
L 9.078125 54.6875 
L 18.109375 54.6875 
L 18.109375 46.1875 
Q 21.1875 51.21875 25.484375 53.609375 
Q 29.78125 56 35.6875 56 
Q 41.65625 56 45.828125 52.96875 
Q 50 49.953125 52 44.1875 
z
" id="DejaVuSans-109"/>
      <path d="M 72.703125 32.078125 
Q 68.453125 32.078125 66.03125 28.46875 
Q 63.625 24.859375 63.625 18.40625 
Q 63.625 12.0625 66.03125 8.421875 
Q 68.453125 4.78125 72.703125 4.78125 
Q 76.859375 4.78125 79.265625 8.421875 
Q 81.6875 12.0625 81.6875 18.40625 
Q 81.6875 24.8125 79.265625 28.4375 
Q 76.859375 32.078125 72.703125 32.078125 
z
M 72.703125 38.28125 
Q 80.421875 38.28125 84.953125 32.90625 
Q 89.5 27.546875 89.5 18.40625 
Q 89.5 9.28125 84.9375 3.921875 
Q 80.375 -1.421875 72.703125 -1.421875 
Q 64.890625 -1.421875 60.34375 3.921875 
Q 55.8125 9.28125 55.8125 18.40625 
Q 55.8125 27.59375 60.375 32.9375 
Q 64.9375 38.28125 72.703125 38.28125 
z
M 22.3125 68.015625 
Q 18.109375 68.015625 15.6875 64.375 
Q 13.28125 60.75 13.28125 54.390625 
Q 13.28125 47.953125 15.671875 44.328125 
Q 18.0625 40.71875 22.3125 40.71875 
Q 26.5625 40.71875 28.96875 44.328125 
Q 31.390625 47.953125 31.390625 54.390625 
Q 31.390625 60.6875 28.953125 64.34375 
Q 26.515625 68.015625 22.3125 68.015625 
z
M 66.40625 74.21875 
L 74.21875 74.21875 
L 28.609375 -1.421875 
L 20.796875 -1.421875 
z
M 22.3125 74.21875 
Q 30.03125 74.21875 34.609375 68.875 
Q 39.203125 63.53125 39.203125 54.390625 
Q 39.203125 45.171875 34.640625 39.84375 
Q 30.078125 34.515625 22.3125 34.515625 
Q 14.546875 34.515625 10.03125 39.859375 
Q 5.515625 45.21875 5.515625 54.390625 
Q 5.515625 63.484375 10.046875 68.84375 
Q 14.59375 74.21875 22.3125 74.21875 
z
" id="DejaVuSans-37"/>
     </defs>
     <use xlink:href="#DejaVuSans-66"/>
     <use x="68.603516" xlink:href="#DejaVuSans-111"/>
     <use x="129.785156" xlink:href="#DejaVuSans-116"/>
     <use x="168.994141" xlink:href="#DejaVuSans-116"/>
     <use x="208.203125" xlink:href="#DejaVuSans-111"/>
     <use x="269.384766" xlink:href="#DejaVuSans-109"/>
     <use x="366.796875" xlink:href="#DejaVuSans-32"/>
     <use x="398.583984" xlink:href="#DejaVuSans-53"/>
     <use x="462.207031" xlink:href="#DejaVuSans-37"/>
    </g>
    <!-- N=3022 -->
    <g transform="translate(254.697192 75.176836)scale(0.12 -0.12)">
     <defs>
      <path d="M 9.8125 72.90625 
L 23.09375 72.90625 
L 55.421875 11.921875 
L 55.421875 72.90625 
L 64.984375 72.90625 
L 64.984375 0 
L 51.703125 0 
L 19.390625 60.984375 
L 19.390625 0 
L 9.8125 0 
z
" id="DejaVuSans-78"/>
      <path d="M 10.59375 45.40625 
L 73.1875 45.40625 
L 73.1875 37.203125 
L 10.59375 37.203125 
z
M 10.59375 25.484375 
L 73.1875 25.484375 
L 73.1875 17.1875 
L 10.59375 17.1875 
z
" id="DejaVuSans-61"/>
     </defs>
     <use xlink:href="#DejaVuSans-78"/>
     <use x="74.804688" xlink:href="#DejaVuSans-61"/>
     <use x="158.59375" xlink:href="#DejaVuSans-51"/>
     <use x="222.216797" xlink:href="#DejaVuSans-48"/>
     <use x="285.839844" xlink:href="#DejaVuSans-50"/>
     <use x="349.462891" xlink:href="#DejaVuSans-50"/>
    </g>
   </g>
   <g id="text_18">
    <!-- HIGH Conversion -->
    <g transform="translate(583.472403 48.302086)scale(0.12 -0.12)">
     <defs>
      <path d="M 9.8125 72.90625 
L 19.671875 72.90625 
L 19.671875 43.015625 
L 55.515625 43.015625 
L 55.515625 72.90625 
L 65.375 72.90625 
L 65.375 0 
L 55.515625 0 
L 55.515625 34.71875 
L 19.671875 34.71875 
L 19.671875 0 
L 9.8125 0 
z
" id="DejaVuSans-72"/>
      <path d="M 9.8125 72.90625 
L 19.671875 72.90625 
L 19.671875 0 
L 9.8125 0 
z
" id="DejaVuSans-73"/>
      <path d="M 59.515625 10.40625 
L 59.515625 29.984375 
L 43.40625 29.984375 
L 43.40625 38.09375 
L 69.28125 38.09375 
L 69.28125 6.78125 
Q 63.578125 2.734375 56.6875 0.65625 
Q 49.8125 -1.421875 42 -1.421875 
Q 24.90625 -1.421875 15.25 8.5625 
Q 5.609375 18.5625 5.609375 36.375 
Q 5.609375 54.25 15.25 64.234375 
Q 24.90625 74.21875 42 74.21875 
Q 49.125 74.21875 55.546875 72.453125 
Q 61.96875 70.703125 67.390625 67.28125 
L 67.390625 56.78125 
Q 61.921875 61.421875 55.765625 63.765625 
Q 49.609375 66.109375 42.828125 66.109375 
Q 29.4375 66.109375 22.71875 58.640625 
Q 16.015625 51.171875 16.015625 36.375 
Q 16.015625 21.625 22.71875 14.15625 
Q 29.4375 6.6875 42.828125 6.6875 
Q 48.046875 6.6875 52.140625 7.59375 
Q 56.25 8.5 59.515625 10.40625 
z
" id="DejaVuSans-71"/>
     </defs>
     <use xlink:href="#DejaVuSans-72"/>
     <use x="75.195312" xlink:href="#DejaVuSans-73"/>
     <use x="104.6875" xlink:href="#DejaVuSans-71"/>
     <use x="182.177734" xlink:href="#DejaVuSans-72"/>
     <use x="257.373047" xlink:href="#DejaVuSans-32"/>
     <use x="289.160156" xlink:href="#DejaVuSans-67"/>
     <use x="358.984375" xlink:href="#DejaVuSans-111"/>
     <use x="420.166016" xlink:href="#DejaVuSans-110"/>
     <use x="483.544922" xlink:href="#DejaVuSans-118"/>
     <use x="542.724609" xlink:href="#DejaVuSans-101"/>
     <use x="604.248047" xlink:href="#DejaVuSans-114"/>
     <use x="645.361328" xlink:href="#DejaVuSans-115"/>
     <use x="697.460938" xlink:href="#DejaVuSans-105"/>
     <use x="725.244141" xlink:href="#DejaVuSans-111"/>
     <use x="786.425781" xlink:href="#DejaVuSans-110"/>
    </g>
    <!-- Top 5% -->
    <g transform="translate(583.472403 61.739461)scale(0.12 -0.12)">
     <defs>
      <path d="M -0.296875 72.90625 
L 61.375 72.90625 
L 61.375 64.59375 
L 35.5 64.59375 
L 35.5 0 
L 25.59375 0 
L 25.59375 64.59375 
L -0.296875 64.59375 
z
" id="DejaVuSans-84"/>
      <path d="M 18.109375 8.203125 
L 18.109375 -20.796875 
L 9.078125 -20.796875 
L 9.078125 54.6875 
L 18.109375 54.6875 
L 18.109375 46.390625 
Q 20.953125 51.265625 25.265625 53.625 
Q 29.59375 56 35.59375 56 
Q 45.5625 56 51.78125 48.09375 
Q 58.015625 40.1875 58.015625 27.296875 
Q 58.015625 14.40625 51.78125 6.484375 
Q 45.5625 -1.421875 35.59375 -1.421875 
Q 29.59375 -1.421875 25.265625 0.953125 
Q 20.953125 3.328125 18.109375 8.203125 
z
M 48.6875 27.296875 
Q 48.6875 37.203125 44.609375 42.84375 
Q 40.53125 48.484375 33.40625 48.484375 
Q 26.265625 48.484375 22.1875 42.84375 
Q 18.109375 37.203125 18.109375 27.296875 
Q 18.109375 17.390625 22.1875 11.75 
Q 26.265625 6.109375 33.40625 6.109375 
Q 40.53125 6.109375 44.609375 11.75 
Q 48.6875 17.390625 48.6875 27.296875 
z
" id="DejaVuSans-112"/>
     </defs>
     <use xlink:href="#DejaVuSans-84"/>
     <use x="44.083984" xlink:href="#DejaVuSans-111"/>
     <use x="105.265625" xlink:href="#DejaVuSans-112"/>
     <use x="168.742188" xlink:href="#DejaVuSans-32"/>
     <use x="200.529297" xlink:href="#DejaVuSans-53"/>
     <use x="264.152344" xlink:href="#DejaVuSans-37"/>
    </g>
    <!-- N=3022 -->
    <g transform="translate(583.472403 75.176836)scale(0.12 -0.12)">
     <use xlink:href="#DejaVuSans-78"/>
     <use x="74.804688" xlink:href="#DejaVuSans-61"/>
     <use x="158.59375" xlink:href="#DejaVuSans-51"/>
     <use x="222.216797" xlink:href="#DejaVuSans-48"/>
     <use x="285.839844" xlink:href="#DejaVuSans-50"/>
     <use x="349.462891" xlink:href="#DejaVuSans-50"/>
    </g>
   </g>
  </g>
 </g>
 <defs>
  <clipPath id="p10bac622c7">
   <rect height="307.4" width="651.9" x="57.3" y="10.8"/>
  </clipPath>
 </defs>
</svg>
